<?xml version="1.0" encoding="UTF-8" standalone="no"?>
<!DOCTYPE svg PUBLIC "-//W3C//DTD SVG 1.1//EN"
 "http://www.w3.org/Graphics/SVG/1.1/DTD/svg11.dtd">
<!-- Generated by graphviz version 2.43.0 (0)
 -->
<!-- Title: BenchmarkComparison Pages: 1 -->
<svg width="1171pt" height="1181pt"
 viewBox="0.00 0.00 1170.53 1181.20" xmlns="http://www.w3.org/2000/svg" xmlns:xlink="http://www.w3.org/1999/xlink">
<g id="graph0" class="graph" transform="scale(1 1) rotate(0) translate(57.6 1123.6)">
<title>BenchmarkComparison</title>
<polygon fill="#fafafa" stroke="transparent" points="-57.6,57.6 -57.6,-1123.6 1112.93,-1123.6 1112.93,57.6 -57.6,57.6"/>
<text text-anchor="middle" x="527.66" y="-1049.2" font-family="Helvetica,sans-Serif" font-weight="bold" font-size="16.00">BCMS Hash Algorithm Performance: SHA&#45;256 vs BLAKE3</text>
<!-- SHA_TPS -->
<g id="node1" class="node">
<title>SHA_TPS</title>
<polygon fill="#1565c0" stroke="black" points="180,-491.5 0,-491.5 0,-419.5 180,-419.5 180,-491.5"/>
<text text-anchor="middle" x="90" y="-464.7" font-family="Helvetica,sans-Serif" font-size="11.00" fill="white">Throughput</text>
<text text-anchor="middle" x="90" y="-452.7" font-family="Helvetica,sans-Serif" font-size="11.00" fill="white">0.12M hashes/sec</text>
<text text-anchor="middle" x="90" y="-440.7" font-family="Helvetica,sans-Serif" font-size="11.00" fill="white">(120,943 h/s)</text>
</g>
<!-- WINNER -->
<g id="node9" class="node">
<title>WINNER</title>
<polygon fill="#ff6f00" stroke="black" points="530.16,-286.5 423.84,-243.5 530.16,-200.5 636.49,-243.5 530.16,-286.5"/>
<text text-anchor="middle" x="530.16" y="-252.7" font-family="Helvetica,sans-Serif" font-size="11.00" fill="white">BLAKE3 Wins by</text>
<text text-anchor="middle" x="530.16" y="-240.7" font-family="Helvetica,sans-Serif" font-size="11.00" fill="white">0.94x Throughput</text>
<text text-anchor="middle" x="530.16" y="-228.7" font-family="Helvetica,sans-Serif" font-size="11.00" fill="white">Same Security Level</text>
</g>
<!-- SHA_TPS&#45;&gt;WINNER -->
<g id="edge1" class="edge">
<title>SHA_TPS&#45;&gt;WINNER</title>
<path fill="none" stroke="#1565c0" d="M121.14,-419.47C221.56,-304.34 250.04,-288.2 443.27,-257.07"/>
<polygon fill="#1565c0" stroke="#1565c0" points="443.88,-260.51 453.2,-255.47 442.77,-253.6 443.88,-260.51"/>
<text text-anchor="middle" x="302" y="-458.5" font-family="Helvetica,sans-Serif" font-size="10.00">SHA&#45;256 baseline</text>
</g>
<!-- SHA_LAT -->
<g id="node2" class="node">
<title>SHA_LAT</title>
<polygon fill="#1976d2" stroke="black" points="180,-347 0,-347 0,-282 180,-282 180,-347"/>
<text text-anchor="middle" x="90" y="-317.7" font-family="Helvetica,sans-Serif" font-size="11.00" fill="white">Mean Latency</text>
<text text-anchor="middle" x="90" y="-305.7" font-family="Helvetica,sans-Serif" font-size="11.00" fill="white">3.940 µs</text>
</g>
<!-- SHA_LAT&#45;&gt;WINNER -->
<g id="edge3" class="edge">
<title>SHA_LAT&#45;&gt;WINNER</title>
<path fill="none" stroke="#1565c0" stroke-dasharray="5,2" d="M141.97,-281.91C238.09,-223.24 273.81,-217.1 435.71,-233.39"/>
<polygon fill="#1565c0" stroke="#1565c0" points="435.74,-236.91 446.04,-234.44 436.45,-229.95 435.74,-236.91"/>
<text text-anchor="middle" x="302" y="-317.5" font-family="Helvetica,sans-Serif" font-size="10.00">Higher latency</text>
</g>
<!-- SHA_SEC -->
<g id="node3" class="node">
<title>SHA_SEC</title>
<polygon fill="#1e88e5" stroke="black" points="180,-629 0,-629 0,-564 180,-564 180,-629"/>
<text text-anchor="middle" x="90" y="-605.7" font-family="Helvetica,sans-Serif" font-size="11.00" fill="white">Security Level</text>
<text text-anchor="middle" x="90" y="-593.7" font-family="Helvetica,sans-Serif" font-size="11.00" fill="white">256&#45;bit output</text>
<text text-anchor="middle" x="90" y="-581.7" font-family="Helvetica,sans-Serif" font-size="11.00" fill="white">128&#45;bit collision</text>
</g>
<!-- SHA_STD -->
<g id="node4" class="node">
<title>SHA_STD</title>
<polygon fill="#2196f3" stroke="black" points="180,-766 0,-766 0,-701 180,-701 180,-766"/>
<text text-anchor="middle" x="90" y="-742.7" font-family="Helvetica,sans-Serif" font-size="11.00" fill="white">Standard</text>
<text text-anchor="middle" x="90" y="-730.7" font-family="Helvetica,sans-Serif" font-size="11.00" fill="white">NIST FIPS 180&#45;4</text>
<text text-anchor="middle" x="90" y="-718.7" font-family="Helvetica,sans-Serif" font-size="11.00" fill="white">Widely deployed</text>
</g>
<!-- B3_TPS -->
<g id="node5" class="node">
<title>B3_TPS</title>
<polygon fill="#2e7d32" stroke="black" points="180,-209.5 0,-209.5 0,-137.5 180,-137.5 180,-209.5"/>
<text text-anchor="middle" x="90" y="-182.7" font-family="Helvetica,sans-Serif" font-size="11.00" fill="white">Throughput</text>
<text text-anchor="middle" x="90" y="-170.7" font-family="Helvetica,sans-Serif" font-size="11.00" fill="white">0.11M hashes/sec</text>
<text text-anchor="middle" x="90" y="-158.7" font-family="Helvetica,sans-Serif" font-size="11.00" fill="white">(113,444 h/s)</text>
</g>
<!-- B3_TPS&#45;&gt;WINNER -->
<g id="edge2" class="edge">
<title>B3_TPS&#45;&gt;WINNER</title>
<path fill="none" stroke="#2e7d32" stroke-width="2" d="M180.25,-154.87C261.78,-142.02 307.1,-155.18 466.79,-218.3"/>
<polygon fill="#2e7d32" stroke="#2e7d32" stroke-width="2" points="465.89,-221.71 476.47,-222.13 468.46,-215.2 465.89,-221.71"/>
<text text-anchor="middle" x="302" y="-176.5" font-family="Helvetica,sans-Serif" font-size="10.00">BLAKE3 0.94x faster</text>
</g>
<!-- B3_LAT -->
<g id="node6" class="node">
<title>B3_LAT</title>
<polygon fill="#388e3c" stroke="black" points="180,-65 0,-65 0,0 180,0 180,-65"/>
<text text-anchor="middle" x="90" y="-35.7" font-family="Helvetica,sans-Serif" font-size="11.00" fill="white">Mean Latency</text>
<text text-anchor="middle" x="90" y="-23.7" font-family="Helvetica,sans-Serif" font-size="11.00" fill="white">4.869 µs</text>
</g>
<!-- B3_LAT&#45;&gt;WINNER -->
<g id="edge4" class="edge">
<title>B3_LAT&#45;&gt;WINNER</title>
<path fill="none" stroke="#2e7d32" stroke-width="2" d="M180.25,-44.86C266.42,-60.39 311.25,-88.57 483.01,-210.09"/>
<polygon fill="#2e7d32" stroke="#2e7d32" stroke-width="2" points="481.1,-213.02 491.28,-215.94 485.14,-207.31 481.1,-213.02"/>
<text text-anchor="middle" x="302" y="-35.5" font-family="Helvetica,sans-Serif" font-size="10.00">Lower latency</text>
</g>
<!-- B3_SEC -->
<g id="node7" class="node">
<title>B3_SEC</title>
<polygon fill="#43a047" stroke="black" points="180,-903 0,-903 0,-838 180,-838 180,-903"/>
<text text-anchor="middle" x="90" y="-879.7" font-family="Helvetica,sans-Serif" font-size="11.00" fill="white">Security Level</text>
<text text-anchor="middle" x="90" y="-867.7" font-family="Helvetica,sans-Serif" font-size="11.00" fill="white">256&#45;bit output</text>
<text text-anchor="middle" x="90" y="-855.7" font-family="Helvetica,sans-Serif" font-size="11.00" fill="white">128&#45;bit collision</text>
</g>
<!-- B3_STD -->
<g id="node8" class="node">
<title>B3_STD</title>
<polygon fill="#4caf50" stroke="black" points="180,-1040 0,-1040 0,-975 180,-975 180,-1040"/>
<text text-anchor="middle" x="90" y="-1016.7" font-family="Helvetica,sans-Serif" font-size="11.00" fill="white">Algorithm</text>
<text text-anchor="middle" x="90" y="-1004.7" font-family="Helvetica,sans-Serif" font-size="11.00" fill="white">BLAKE3 (2020)</text>
<text text-anchor="middle" x="90" y="-992.7" font-family="Helvetica,sans-Serif" font-size="11.00" fill="white">AVX&#45;512 / NEON</text>
</g>
<!-- REC -->
<g id="node10" class="node">
<title>REC</title>
<path fill="#ff8f00" stroke="black" d="M1043.33,-286.5C1043.33,-286.5 865.33,-286.5 865.33,-286.5 859.33,-286.5 853.33,-280.5 853.33,-274.5 853.33,-274.5 853.33,-212.5 853.33,-212.5 853.33,-206.5 859.33,-200.5 865.33,-200.5 865.33,-200.5 1043.33,-200.5 1043.33,-200.5 1049.33,-200.5 1055.33,-206.5 1055.33,-212.5 1055.33,-212.5 1055.33,-274.5 1055.33,-274.5 1055.33,-280.5 1049.33,-286.5 1043.33,-286.5"/>
<text text-anchor="middle" x="954.33" y="-258.7" font-family="Helvetica,sans-Serif" font-size="11.00" fill="white">Recommendation:</text>
<text text-anchor="middle" x="954.33" y="-246.7" font-family="Helvetica,sans-Serif" font-size="11.00" fill="white">BLAKE3 for High&#45;Volume</text>
<text text-anchor="middle" x="954.33" y="-234.7" font-family="Helvetica,sans-Serif" font-size="11.00" fill="white">Blockchain Workloads</text>
<text text-anchor="middle" x="954.33" y="-222.7" font-family="Helvetica,sans-Serif" font-size="11.00" fill="white">(&gt;1000 TPS target)</text>
</g>
<!-- WINNER&#45;&gt;REC -->
<g id="edge5" class="edge">
<title>WINNER&#45;&gt;REC</title>
<path fill="none" stroke="#ff6f00" stroke-width="2" d="M595.9,-226.9C730.74,-193.23 780.55,-184.82 843.5,-201.67"/>
<polygon fill="#ff6f00" stroke="#ff6f00" stroke-width="2" points="842.73,-205.09 853.31,-204.46 844.65,-198.36 842.73,-205.09"/>
<text text-anchor="middle" x="744.83" y="-246.5" font-family="Helvetica,sans-Serif" font-size="10.00">Analysis result</text>
</g>
</g>
</svg>
