<?xml version="1.0" encoding="UTF-8" standalone="no"?>
<!DOCTYPE svg PUBLIC "-//W3C//DTD SVG 1.1//EN"
 "http://www.w3.org/Graphics/SVG/1.1/DTD/svg11.dtd">
<!-- Generated by graphviz version 2.43.0 (0)
 -->
<!-- Title: BlockchainArchitecture Pages: 1 -->
<svg width="809pt" height="972pt"
 viewBox="0.00 0.00 808.50 972.00" xmlns="http://www.w3.org/2000/svg" xmlns:xlink="http://www.w3.org/1999/xlink">
<g id="graph0" class="graph" transform="scale(1 1) rotate(0) translate(36 936)">
<title>BlockchainArchitecture</title>
<polygon fill="#fafafa" stroke="transparent" points="-36,36 -36,-936 772.5,-936 772.5,36 -36,36"/>
<text text-anchor="middle" x="368.25" y="-883.2" font-family="Helvetica,sans-Serif" font-weight="bold" font-size="16.00">BCMS Hyperledger Fabric Network Architecture</text>
<g id="clust2" class="cluster">
<title>cluster_org1</title>
<polygon fill="#e3f2fd" stroke="#0d47a1" points="278,-681 278,-866 728.5,-866 728.5,-681 278,-681"/>
<text text-anchor="middle" x="503.25" y="-852.4" font-family="Helvetica,sans-Serif" font-weight="bold" font-size="12.00">Organization 1 — University (Issuer)</text>
</g>
<g id="clust3" class="cluster">
<title>cluster_org2</title>
<polygon fill="#e8f5e9" stroke="#1b5e20" points="278,-8 278,-193 728.5,-193 728.5,-8 278,-8"/>
<text text-anchor="middle" x="503.25" y="-179.4" font-family="Helvetica,sans-Serif" font-weight="bold" font-size="12.00">Organization 2 — Verifier (Employer)</text>
</g>
<g id="clust4" class="cluster">
<title>cluster_orderer</title>
<polygon fill="#fff3e0" stroke="#e65100" points="8,-373 8,-463 427,-463 427,-373 8,-373"/>
<text text-anchor="middle" x="217.5" y="-449.4" font-family="Helvetica,sans-Serif" font-weight="bold" font-size="12.00">Ordering Service</text>
</g>
<!-- CLI1 -->
<g id="node1" class="node">
<title>CLI1</title>
<polygon fill="#3949ab" stroke="black" points="391.5,-645 302.5,-645 302.5,-609 391.5,-609 391.5,-645"/>
<text text-anchor="middle" x="347" y="-630" font-family="Helvetica,sans-Serif" font-size="10.00" fill="white">University App</text>
<text text-anchor="middle" x="347" y="-619" font-family="Helvetica,sans-Serif" font-size="10.00" fill="white">(Org1 Client)</text>
</g>
<!-- PEER1 -->
<g id="node5" class="node">
<title>PEER1</title>
<polygon fill="#1976d2" stroke="black" points="735,-576 596,-576 596,-540 735,-540 735,-576"/>
<text text-anchor="middle" x="665.5" y="-561" font-family="Helvetica,sans-Serif" font-size="10.00" fill="white">peer0.org1.example.com</text>
<text text-anchor="middle" x="665.5" y="-550" font-family="Helvetica,sans-Serif" font-size="10.00" fill="white">Endorsing Peer</text>
</g>
<!-- CLI1&#45;&gt;PEER1 -->
<g id="edge1" class="edge">
<title>CLI1&#45;&gt;PEER1</title>
<path fill="none" stroke="#1565c0" stroke-width="2" d="M391.67,-630.1C531.67,-639.48 554.69,-635.82 631.63,-582.11"/>
<polygon fill="#1565c0" stroke="#1565c0" stroke-width="2" points="634.1,-584.65 640.27,-576.04 630.07,-578.93 634.1,-584.65"/>
<text text-anchor="middle" x="507.5" y="-638.8" font-family="Helvetica,sans-Serif" font-size="9.00">gRPC:7051</text>
<text text-anchor="middle" x="507.5" y="-628.8" font-family="Helvetica,sans-Serif" font-size="9.00">IssueCertificate()</text>
</g>
<!-- CLI2 -->
<g id="node2" class="node">
<title>CLI2</title>
<polygon fill="#3949ab" stroke="black" points="389.5,-276 304.5,-276 304.5,-240 389.5,-240 389.5,-276"/>
<text text-anchor="middle" x="347" y="-261" font-family="Helvetica,sans-Serif" font-size="10.00" fill="white">Employer App</text>
<text text-anchor="middle" x="347" y="-250" font-family="Helvetica,sans-Serif" font-size="10.00" fill="white">(Org2 Client)</text>
</g>
<!-- PEER2 -->
<g id="node9" class="node">
<title>PEER2</title>
<polygon fill="#388e3c" stroke="black" points="735,-359 596,-359 596,-323 735,-323 735,-359"/>
<text text-anchor="middle" x="665.5" y="-344" font-family="Helvetica,sans-Serif" font-size="10.00" fill="white">peer0.org2.example.com</text>
<text text-anchor="middle" x="665.5" y="-333" font-family="Helvetica,sans-Serif" font-size="10.00" fill="white">Endorsing Peer</text>
</g>
<!-- CLI2&#45;&gt;PEER2 -->
<g id="edge2" class="edge">
<title>CLI2&#45;&gt;PEER2</title>
<path fill="none" stroke="#2e7d32" stroke-width="2" d="M389.57,-257.01C535.37,-253.91 557.62,-258.35 634.1,-316.65"/>
<polygon fill="#2e7d32" stroke="#2e7d32" stroke-width="2" points="632.12,-319.54 642.18,-322.85 636.38,-313.99 632.12,-319.54"/>
<text text-anchor="middle" x="507.5" y="-270.8" font-family="Helvetica,sans-Serif" font-size="9.00">gRPC:9051</text>
<text text-anchor="middle" x="507.5" y="-260.8" font-family="Helvetica,sans-Serif" font-size="9.00">VerifyCertificate()</text>
</g>
<!-- CLI3 -->
<g id="node3" class="node">
<title>CLI3</title>
<polygon fill="#5c6bc0" stroke="black" points="390,-566 304,-566 304,-530 390,-530 390,-566"/>
<text text-anchor="middle" x="347" y="-551" font-family="Helvetica,sans-Serif" font-size="10.00" fill="white">Student Portal</text>
<text text-anchor="middle" x="347" y="-540" font-family="Helvetica,sans-Serif" font-size="10.00" fill="white">(Public Client)</text>
</g>
<!-- CLI3&#45;&gt;PEER1 -->
<g id="edge3" class="edge">
<title>CLI3&#45;&gt;PEER1</title>
<path fill="none" stroke="#5c6bc0" d="M390.01,-557.49C509.75,-583.75 546.9,-589.73 596.93,-578.43"/>
<polygon fill="#5c6bc0" stroke="#5c6bc0" points="597.9,-581.8 606.79,-576.03 596.24,-575 597.9,-581.8"/>
<text text-anchor="middle" x="507.5" y="-570.8" font-family="Helvetica,sans-Serif" font-size="9.00">gRPC:7051</text>
<text text-anchor="middle" x="507.5" y="-560.8" font-family="Helvetica,sans-Serif" font-size="9.00">ReadCertificate()</text>
</g>
<!-- CA1 -->
<g id="node4" class="node">
<title>CA1</title>
<polygon fill="#1565c0" stroke="black" points="408,-730.5 286,-730.5 286,-689.5 408,-689.5 408,-730.5"/>
<text text-anchor="middle" x="347" y="-718.5" font-family="Helvetica,sans-Serif" font-size="10.00" fill="white">CA</text>
<text text-anchor="middle" x="347" y="-707.5" font-family="Helvetica,sans-Serif" font-size="10.00" fill="white">ca.org1.example.com</text>
<text text-anchor="middle" x="347" y="-696.5" font-family="Helvetica,sans-Serif" font-size="10.00" fill="white">(Certificate Authority)</text>
</g>
<!-- CA1&#45;&gt;PEER1 -->
<g id="edge12" class="edge">
<title>CA1&#45;&gt;PEER1</title>
<path fill="none" stroke="#9e9e9e" stroke-dasharray="5,2" d="M408.12,-704.25C537.4,-691.17 557.67,-678.63 642.55,-583.79"/>
<polygon fill="#9e9e9e" stroke="#9e9e9e" points="645.27,-586 649.32,-576.21 640.05,-581.33 645.27,-586"/>
<text text-anchor="middle" x="507.5" y="-696.8" font-family="Helvetica,sans-Serif" font-size="9.00">TLS cert</text>
</g>
<!-- CC1 -->
<g id="node7" class="node">
<title>CC1</title>
<polygon fill="#0288d1" stroke="black" points="402,-836.5 292,-836.5 292,-832.5 288,-832.5 288,-828.5 292,-828.5 292,-781.5 288,-781.5 288,-777.5 292,-777.5 292,-773.5 402,-773.5 402,-836.5"/>
<polyline fill="none" stroke="black" points="292,-832.5 296,-832.5 296,-828.5 292,-828.5 "/>
<polyline fill="none" stroke="black" points="292,-781.5 296,-781.5 296,-777.5 292,-777.5 "/>
<text text-anchor="middle" x="347" y="-824.5" font-family="Helvetica,sans-Serif" font-size="10.00" fill="white">BCMS Chaincode</text>
<text text-anchor="middle" x="347" y="-813.5" font-family="Helvetica,sans-Serif" font-size="10.00" fill="white">(Go v1.21)</text>
<text text-anchor="middle" x="347" y="-802.5" font-family="Helvetica,sans-Serif" font-size="10.00" fill="white">IssueCertificate()</text>
<text text-anchor="middle" x="347" y="-791.5" font-family="Helvetica,sans-Serif" font-size="10.00" fill="white">VerifyCertificate()</text>
<text text-anchor="middle" x="347" y="-780.5" font-family="Helvetica,sans-Serif" font-size="10.00" fill="white">RevokeCertificate()</text>
</g>
<!-- PEER1&#45;&gt;CC1 -->
<g id="edge4" class="edge">
<title>PEER1&#45;&gt;CC1</title>
<path fill="none" stroke="#0d47a1" d="M402.02,-790.08C539.32,-751.86 556.52,-733.9 648.97,-584.73"/>
<polygon fill="#0d47a1" stroke="#0d47a1" points="652.01,-586.48 654.3,-576.13 646.06,-582.79 652.01,-586.48"/>
<text text-anchor="middle" x="507.5" y="-754.8" font-family="Helvetica,sans-Serif" font-size="9.00">Endorse</text>
</g>
<!-- ORD -->
<g id="node13" class="node">
<title>ORD</title>
<polygon fill="#e64a19" stroke="black" points="419,-433.5 275,-433.5 275,-392.5 419,-392.5 419,-433.5"/>
<text text-anchor="middle" x="347" y="-421.5" font-family="Helvetica,sans-Serif" font-size="10.00" fill="white">orderer.example.com</text>
<text text-anchor="middle" x="347" y="-410.5" font-family="Helvetica,sans-Serif" font-size="10.00" fill="white">Raft Consensus</text>
<text text-anchor="middle" x="347" y="-399.5" font-family="Helvetica,sans-Serif" font-size="10.00" fill="white">Port: 7050</text>
</g>
<!-- PEER1&#45;&gt;ORD -->
<g id="edge8" class="edge">
<title>PEER1&#45;&gt;ORD</title>
<path fill="none" stroke="#e65100" stroke-width="2" d="M395.4,-433.57C538.22,-494.28 570.4,-508.41 622.36,-535.33"/>
<polygon fill="#e65100" stroke="#e65100" stroke-width="2" points="620.76,-538.44 631.25,-539.95 623.99,-532.23 620.76,-538.44"/>
<text text-anchor="middle" x="507.5" y="-502.8" font-family="Helvetica,sans-Serif" font-size="9.00">Submit endorsed tx</text>
</g>
<!-- CHANNEL -->
<g id="node14" class="node">
<title>CHANNEL</title>
<polygon fill="#f5f5f5" stroke="#757575" stroke-dasharray="5,2" points="718.5,-237 612.5,-237 612.5,-201 718.5,-201 718.5,-237"/>
<text text-anchor="middle" x="665.5" y="-222.2" font-family="Helvetica,sans-Serif" font-size="11.00">mychannel</text>
<text text-anchor="middle" x="665.5" y="-210.2" font-family="Helvetica,sans-Serif" font-size="11.00">(Fabric Channel)</text>
</g>
<!-- PEER1&#45;&gt;CHANNEL -->
<!-- COUCH1 -->
<g id="node6" class="node">
<title>COUCH1</title>
<path fill="#64b5f6" stroke="black" d="M720.5,-832.22C720.5,-835.06 695.85,-837.38 665.5,-837.38 635.15,-837.38 610.5,-835.06 610.5,-832.22 610.5,-832.22 610.5,-785.78 610.5,-785.78 610.5,-782.94 635.15,-780.62 665.5,-780.62 695.85,-780.62 720.5,-782.94 720.5,-785.78 720.5,-785.78 720.5,-832.22 720.5,-832.22"/>
<path fill="none" stroke="black" d="M720.5,-832.22C720.5,-829.37 695.85,-827.06 665.5,-827.06 635.15,-827.06 610.5,-829.37 610.5,-832.22"/>
<text text-anchor="middle" x="665.5" y="-817.5" font-family="Helvetica,sans-Serif" font-size="10.00" fill="#0d47a1">CouchDB</text>
<text text-anchor="middle" x="665.5" y="-806.5" font-family="Helvetica,sans-Serif" font-size="10.00" fill="#0d47a1">Rich Query Support</text>
<text text-anchor="middle" x="665.5" y="-795.5" font-family="Helvetica,sans-Serif" font-size="10.00" fill="#0d47a1">(CertID indexed)</text>
</g>
<!-- CC1&#45;&gt;COUCH1 -->
<g id="edge6" class="edge">
<title>CC1&#45;&gt;COUCH1</title>
<path fill="none" stroke="#0d47a1" d="M402.16,-823.6C503.33,-857.04 533.19,-860.46 601.1,-835.23"/>
<polygon fill="#0d47a1" stroke="#0d47a1" points="602.39,-838.48 610.49,-831.65 599.9,-831.94 602.39,-838.48"/>
<text text-anchor="middle" x="507.5" y="-812.8" font-family="Helvetica,sans-Serif" font-size="9.00">PutState/GetState</text>
</g>
<!-- CA2 -->
<g id="node8" class="node">
<title>CA2</title>
<polygon fill="#2e7d32" stroke="black" points="408,-163.5 286,-163.5 286,-122.5 408,-122.5 408,-163.5"/>
<text text-anchor="middle" x="347" y="-151.5" font-family="Helvetica,sans-Serif" font-size="10.00" fill="white">CA</text>
<text text-anchor="middle" x="347" y="-140.5" font-family="Helvetica,sans-Serif" font-size="10.00" fill="white">ca.org2.example.com</text>
<text text-anchor="middle" x="347" y="-129.5" font-family="Helvetica,sans-Serif" font-size="10.00" fill="white">(Certificate Authority)</text>
</g>
<!-- CA2&#45;&gt;PEER2 -->
<g id="edge13" class="edge">
<title>CA2&#45;&gt;PEER2</title>
<path fill="none" stroke="#9e9e9e" stroke-dasharray="5,2" d="M408.04,-154.58C541.69,-180.95 560.52,-196.63 646.41,-314.67"/>
<polygon fill="#9e9e9e" stroke="#9e9e9e" points="643.74,-316.93 652.44,-322.97 649.4,-312.82 643.74,-316.93"/>
<text text-anchor="middle" x="507.5" y="-195.8" font-family="Helvetica,sans-Serif" font-size="9.00">TLS cert</text>
</g>
<!-- CC2 -->
<g id="node11" class="node">
<title>CC2</title>
<polygon fill="#43a047" stroke="black" points="402,-79.5 292,-79.5 292,-75.5 288,-75.5 288,-71.5 292,-71.5 292,-24.5 288,-24.5 288,-20.5 292,-20.5 292,-16.5 402,-16.5 402,-79.5"/>
<polyline fill="none" stroke="black" points="292,-75.5 296,-75.5 296,-71.5 292,-71.5 "/>
<polyline fill="none" stroke="black" points="292,-24.5 296,-24.5 296,-20.5 292,-20.5 "/>
<text text-anchor="middle" x="347" y="-67.5" font-family="Helvetica,sans-Serif" font-size="10.00" fill="white">BCMS Chaincode</text>
<text text-anchor="middle" x="347" y="-56.5" font-family="Helvetica,sans-Serif" font-size="10.00" fill="white">(Go v1.21)</text>
<text text-anchor="middle" x="347" y="-45.5" font-family="Helvetica,sans-Serif" font-size="10.00" fill="white">IssueCertificate()</text>
<text text-anchor="middle" x="347" y="-34.5" font-family="Helvetica,sans-Serif" font-size="10.00" fill="white">VerifyCertificate()</text>
<text text-anchor="middle" x="347" y="-23.5" font-family="Helvetica,sans-Serif" font-size="10.00" fill="white">RevokeCertificate()</text>
</g>
<!-- PEER2&#45;&gt;CC2 -->
<g id="edge5" class="edge">
<title>PEER2&#45;&gt;CC2</title>
<path fill="none" stroke="#1b5e20" d="M402.19,-67.65C543.28,-118.99 559.48,-139.62 651.32,-314.03"/>
<polygon fill="#1b5e20" stroke="#1b5e20" points="648.29,-315.78 656.04,-323 654.48,-312.52 648.29,-315.78"/>
<text text-anchor="middle" x="507.5" y="-131.8" font-family="Helvetica,sans-Serif" font-size="9.00">Endorse</text>
</g>
<!-- PEER2&#45;&gt;ORD -->
<g id="edge9" class="edge">
<title>PEER2&#45;&gt;ORD</title>
<path fill="none" stroke="#e65100" stroke-width="2" d="M419.16,-392.61C509.5,-367.18 548.89,-356.82 585.47,-350.64"/>
<polygon fill="#e65100" stroke="#e65100" stroke-width="2" points="586.42,-354.03 595.75,-349 585.32,-347.12 586.42,-354.03"/>
<text text-anchor="middle" x="507.5" y="-386.8" font-family="Helvetica,sans-Serif" font-size="9.00">Submit endorsed tx</text>
</g>
<!-- PEER2&#45;&gt;CHANNEL -->
<!-- COUCH2 -->
<g id="node10" class="node">
<title>COUCH2</title>
<path fill="#81c784" stroke="black" d="M720.5,-82.22C720.5,-85.06 695.85,-87.38 665.5,-87.38 635.15,-87.38 610.5,-85.06 610.5,-82.22 610.5,-82.22 610.5,-35.78 610.5,-35.78 610.5,-32.94 635.15,-30.62 665.5,-30.62 695.85,-30.62 720.5,-32.94 720.5,-35.78 720.5,-35.78 720.5,-82.22 720.5,-82.22"/>
<path fill="none" stroke="black" d="M720.5,-82.22C720.5,-79.37 695.85,-77.06 665.5,-77.06 635.15,-77.06 610.5,-79.37 610.5,-82.22"/>
<text text-anchor="middle" x="665.5" y="-67.5" font-family="Helvetica,sans-Serif" font-size="10.00" fill="#1b5e20">CouchDB</text>
<text text-anchor="middle" x="665.5" y="-56.5" font-family="Helvetica,sans-Serif" font-size="10.00" fill="#1b5e20">Rich Query Support</text>
<text text-anchor="middle" x="665.5" y="-45.5" font-family="Helvetica,sans-Serif" font-size="10.00" fill="#1b5e20">(CertID indexed)</text>
</g>
<!-- CC2&#45;&gt;COUCH2 -->
<g id="edge7" class="edge">
<title>CC2&#45;&gt;COUCH2</title>
<path fill="none" stroke="#1b5e20" d="M402.38,-31.48C502.87,-2.18 532.69,-0.15 600.85,-29.16"/>
<polygon fill="#1b5e20" stroke="#1b5e20" points="599.71,-32.48 610.27,-33.26 602.5,-26.06 599.71,-32.48"/>
<text text-anchor="middle" x="507.5" y="-61.8" font-family="Helvetica,sans-Serif" font-size="9.00">PutState/GetState</text>
</g>
<!-- CA_ORD -->
<g id="node12" class="node">
<title>CA_ORD</title>
<polygon fill="#bf360c" stroke="black" points="151,-434 16,-434 16,-398 151,-398 151,-434"/>
<text text-anchor="middle" x="83.5" y="-419" font-family="Helvetica,sans-Serif" font-size="10.00" fill="white">CA</text>
<text text-anchor="middle" x="83.5" y="-408" font-family="Helvetica,sans-Serif" font-size="10.00" fill="white">ca.orderer.example.com</text>
</g>
<!-- CA_ORD&#45;&gt;ORD -->
<g id="edge14" class="edge">
<title>CA_ORD&#45;&gt;ORD</title>
<path fill="none" stroke="#9e9e9e" stroke-dasharray="5,2" d="M151.04,-409.51C177.07,-408.16 206.41,-408.52 264.86,-410.31"/>
<polygon fill="#9e9e9e" stroke="#9e9e9e" points="264.79,-413.81 274.89,-410.62 265.01,-406.81 264.79,-413.81"/>
<text text-anchor="middle" x="213" y="-426.8" font-family="Helvetica,sans-Serif" font-size="9.00">TLS cert</text>
</g>
<!-- ORD&#45;&gt;PEER1 -->
<g id="edge10" class="edge">
<title>ORD&#45;&gt;PEER1</title>
<path fill="none" stroke="#e65100" d="M395.26,-433.51C538.18,-494.26 570.37,-508.4 622.34,-535.31"/>
<polygon fill="#e65100" stroke="#e65100" points="620.74,-538.42 631.22,-539.94 623.97,-532.22 620.74,-538.42"/>
<text text-anchor="middle" x="507.5" y="-444.8" font-family="Helvetica,sans-Serif" font-size="9.00">Deliver block</text>
</g>
<!-- ORD&#45;&gt;PEER2 -->
<g id="edge11" class="edge">
<title>ORD&#45;&gt;PEER2</title>
<path fill="none" stroke="#e65100" d="M419.03,-392.64C509.52,-367.17 548.92,-356.81 585.54,-350.63"/>
<polygon fill="#e65100" stroke="#e65100" points="586.51,-354.02 595.83,-348.99 585.41,-347.11 586.51,-354.02"/>
<text text-anchor="middle" x="507.5" y="-328.8" font-family="Helvetica,sans-Serif" font-size="9.00">Deliver block</text>
</g>
</g>
</svg>
