<?xml version="1.0" encoding="UTF-8" standalone="no"?>
<!DOCTYPE svg PUBLIC "-//W3C//DTD SVG 1.1//EN"
 "http://www.w3.org/Graphics/SVG/1.1/DTD/svg11.dtd">
<!-- Generated by graphviz version 2.43.0 (0)
 -->
<!-- Title: ProtocolFlow Pages: 1 -->
<svg width="1257pt" height="785pt"
 viewBox="0.00 0.00 1257.00 784.51" xmlns="http://www.w3.org/2000/svg" xmlns:xlink="http://www.w3.org/1999/xlink">
<g id="graph0" class="graph" transform="scale(1 1) rotate(0) translate(36 748.51)">
<title>ProtocolFlow</title>
<polygon fill="#f8f9fa" stroke="transparent" points="-36,36 -36,-748.51 1221,-748.51 1221,36 -36,36"/>
<text text-anchor="middle" x="592.5" y="-695.71" font-family="Helvetica,sans-Serif" font-weight="bold" font-size="16.00">BCMS Protocol Flow: Certificate Issuance &amp; Verification</text>
<text text-anchor="middle" x="592.5" y="-677.71" font-family="Helvetica,sans-Serif" font-weight="bold" font-size="16.00">Hyperledger Fabric &#45; Academic Certificate Anti&#45;Forgery System</text>
<g id="clust1" class="cluster">
<title>cluster_issuer</title>
<polygon fill="#e3f2fd" stroke="#1565c0" points="315,-444.25 315,-658.14 529,-658.14 529,-444.25 315,-444.25"/>
<text text-anchor="middle" x="422" y="-643.74" font-family="Helvetica,sans-Serif" font-weight="bold" font-size="13.00" fill="#1565c0">University (Org1MSP)</text>
</g>
<g id="clust2" class="cluster">
<title>cluster_student</title>
<polygon fill="#e8f5e9" stroke="#2e7d32" points="297,-306.75 297,-388.75 437,-388.75 437,-306.75 297,-306.75"/>
<text text-anchor="middle" x="367" y="-374.35" font-family="Helvetica,sans-Serif" font-weight="bold" font-size="13.00">Student (Holder)</text>
</g>
<g id="clust3" class="cluster">
<title>cluster_blockchain</title>
<polygon fill="#fff3e0" stroke="#e65100" points="858,-448.88 858,-660.51 1177,-660.51 1177,-448.88 858,-448.88"/>
<text text-anchor="middle" x="1017.5" y="-646.11" font-family="Helvetica,sans-Serif" font-weight="bold" font-size="13.00">Hyperledger Fabric Blockchain</text>
</g>
<g id="clust4" class="cluster">
<title>cluster_verifier</title>
<polygon fill="#fce4ec" stroke="#880e4f" points="368,-8 368,-238.25 856,-238.25 856,-8 368,-8"/>
<text text-anchor="middle" x="612" y="-223.85" font-family="Helvetica,sans-Serif" font-weight="bold" font-size="13.00">Verifier (Org2MSP / Employer)</text>
</g>
<!-- UNI -->
<g id="node1" class="node">
<title>UNI</title>
<path fill="#1565c0" stroke="black" d="M118,-201.25C118,-201.25 12,-201.25 12,-201.25 6,-201.25 0,-195.25 0,-189.25 0,-189.25 0,-163.25 0,-163.25 0,-157.25 6,-151.25 12,-151.25 12,-151.25 118,-151.25 118,-151.25 124,-151.25 130,-157.25 130,-163.25 130,-163.25 130,-189.25 130,-189.25 130,-195.25 124,-201.25 118,-201.25"/>
<text text-anchor="middle" x="65" y="-179.45" font-family="Helvetica,sans-Serif" font-size="11.00" fill="white">🎓 University</text>
<text text-anchor="middle" x="65" y="-167.45" font-family="Helvetica,sans-Serif" font-size="11.00" fill="white">(Issuer)</text>
</g>
<!-- COMPUTE_HASH -->
<g id="node2" class="node">
<title>COMPUTE_HASH</title>
<ellipse fill="#bbdefb" stroke="black" cx="421" cy="-605.51" rx="98.08" ry="22.76"/>
<text text-anchor="middle" x="421" y="-608.71" font-family="Helvetica,sans-Serif" font-size="11.00" fill="#0d47a1">Compute Hash</text>
<text text-anchor="middle" x="421" y="-596.71" font-family="Helvetica,sans-Serif" font-size="11.00" fill="#0d47a1">H(C) = SHA256(fields)</text>
</g>
<!-- UNI&#45;&gt;COMPUTE_HASH -->
<g id="edge1" class="edge">
<title>UNI&#45;&gt;COMPUTE_HASH</title>
<path fill="none" stroke="#1565c0" stroke-width="2" d="M65,-201.47C65,-293.38 65,-605 65,-605 65,-605 312.31,-605 312.31,-605"/>
<polygon fill="#1565c0" stroke="#1565c0" stroke-width="2" points="312.31,-608.5 322.31,-605 312.31,-601.5 312.31,-608.5"/>
<text text-anchor="middle" x="124.5" y="-408.25" font-family="Helvetica,sans-Serif" font-size="10.00">1. Build C = (IDs,IDc,S,t)</text>
</g>
<!-- SIGN -->
<g id="node3" class="node">
<title>SIGN</title>
<ellipse fill="#bbdefb" stroke="black" cx="422" cy="-474.88" rx="98.99" ry="22.76"/>
<text text-anchor="middle" x="422" y="-478.08" font-family="Helvetica,sans-Serif" font-size="11.00" fill="#0d47a1">Sign Certificate</text>
<text text-anchor="middle" x="422" y="-466.08" font-family="Helvetica,sans-Serif" font-size="11.00" fill="#0d47a1">Sig = Sign(sk_U, H(C))</text>
</g>
<!-- COMPUTE_HASH&#45;&gt;SIGN -->
<g id="edge2" class="edge">
<title>COMPUTE_HASH&#45;&gt;SIGN</title>
<path fill="none" stroke="#1565c0" stroke-width="2" d="M421.15,-582.76C421.15,-582.76 421.15,-507.81 421.15,-507.81"/>
<polygon fill="#1565c0" stroke="#1565c0" stroke-width="2" points="424.65,-507.81 421.15,-497.81 417.65,-507.81 424.65,-507.81"/>
<text text-anchor="middle" x="464" y="-536.51" font-family="Helvetica,sans-Serif" font-size="10.00">2. H(C) computed</text>
</g>
<!-- CHAINCODE -->
<g id="node8" class="node">
<title>CHAINCODE</title>
<polygon fill="#ff8f00" stroke="black" points="678,-369.25 520,-369.25 520,-365.25 516,-365.25 516,-361.25 520,-361.25 520,-312.25 516,-312.25 516,-308.25 520,-308.25 520,-304.25 678,-304.25 678,-369.25"/>
<polyline fill="none" stroke="black" points="520,-365.25 524,-365.25 524,-361.25 520,-361.25 "/>
<polyline fill="none" stroke="black" points="520,-312.25 524,-312.25 524,-308.25 520,-308.25 "/>
<text text-anchor="middle" x="599" y="-345.95" font-family="Helvetica,sans-Serif" font-size="11.00" fill="white">⚙️ Chaincode</text>
<text text-anchor="middle" x="599" y="-333.95" font-family="Helvetica,sans-Serif" font-size="11.00" fill="white">IssueCertificate()</text>
<text text-anchor="middle" x="599" y="-321.95" font-family="Helvetica,sans-Serif" font-size="11.00" fill="white">VerifyCertificate()</text>
</g>
<!-- SIGN&#45;&gt;CHAINCODE -->
<g id="edge3" class="edge">
<title>SIGN&#45;&gt;CHAINCODE</title>
<path fill="none" stroke="#e65100" stroke-width="2" d="M510.56,-464.65C510.56,-437.2 510.56,-364 510.56,-364 510.56,-364 511.48,-364 511.48,-364"/>
<polygon fill="#e65100" stroke="#e65100" stroke-width="2" points="509.69,-367.5 519.69,-364 509.69,-360.5 509.69,-367.5"/>
<text text-anchor="middle" x="527.5" y="-408.25" font-family="Helvetica,sans-Serif" font-size="10.00">3. Submit IssueCertificate()</text>
</g>
<!-- STU -->
<g id="node4" class="node">
<title>STU</title>
<path fill="#2e7d32" stroke="black" d="M306,-201.25C306,-201.25 200,-201.25 200,-201.25 194,-201.25 188,-195.25 188,-189.25 188,-189.25 188,-163.25 188,-163.25 188,-157.25 194,-151.25 200,-151.25 200,-151.25 306,-151.25 306,-151.25 312,-151.25 318,-157.25 318,-163.25 318,-163.25 318,-189.25 318,-189.25 318,-195.25 312,-201.25 306,-201.25"/>
<text text-anchor="middle" x="253" y="-173.45" font-family="Helvetica,sans-Serif" font-size="11.00" fill="white">👨‍🎓 Student</text>
</g>
<!-- STORE_CERT -->
<g id="node5" class="node">
<title>STORE_CERT</title>
<path fill="#c8e6c9" stroke="black" d="M420.5,-354.75C420.5,-356.96 396.52,-358.75 367,-358.75 337.48,-358.75 313.5,-356.96 313.5,-354.75 313.5,-354.75 313.5,-318.75 313.5,-318.75 313.5,-316.55 337.48,-314.75 367,-314.75 396.52,-314.75 420.5,-316.55 420.5,-318.75 420.5,-318.75 420.5,-354.75 420.5,-354.75"/>
<path fill="none" stroke="black" d="M420.5,-354.75C420.5,-352.55 396.52,-350.75 367,-350.75 337.48,-350.75 313.5,-352.55 313.5,-354.75"/>
<text text-anchor="middle" x="367" y="-339.95" font-family="Helvetica,sans-Serif" font-size="11.00" fill="#1b5e20">Store Certificate</text>
<text text-anchor="middle" x="367" y="-327.95" font-family="Helvetica,sans-Serif" font-size="11.00" fill="#1b5e20">(off&#45;chain)</text>
</g>
<!-- STU&#45;&gt;STORE_CERT -->
<g id="edge9" class="edge">
<title>STU&#45;&gt;STORE_CERT</title>
<path fill="none" stroke="#2e7d32" d="M318.1,-176C333.73,-176 346,-176 346,-176 346,-176 346,-304.74 346,-304.74"/>
<polygon fill="#2e7d32" stroke="#2e7d32" points="342.5,-304.74 346,-314.74 349.5,-304.74 342.5,-304.74"/>
<text text-anchor="middle" x="285.5" y="-254.75" font-family="Helvetica,sans-Serif" font-size="10.00">8. Student stores cert</text>
</g>
<!-- VER -->
<g id="node11" class="node">
<title>VER</title>
<path fill="#880e4f" stroke="black" d="M494,-201.25C494,-201.25 388,-201.25 388,-201.25 382,-201.25 376,-195.25 376,-189.25 376,-189.25 376,-163.25 376,-163.25 376,-157.25 382,-151.25 388,-151.25 388,-151.25 494,-151.25 494,-151.25 500,-151.25 506,-157.25 506,-163.25 506,-163.25 506,-189.25 506,-189.25 506,-195.25 500,-201.25 494,-201.25"/>
<text text-anchor="middle" x="441" y="-179.45" font-family="Helvetica,sans-Serif" font-size="11.00" fill="white">🔍 Verifier</text>
<text text-anchor="middle" x="441" y="-167.45" font-family="Helvetica,sans-Serif" font-size="11.00" fill="white">(Employer)</text>
</g>
<!-- STORE_CERT&#45;&gt;VER -->
<g id="edge10" class="edge">
<title>STORE_CERT&#45;&gt;VER</title>
<path fill="none" stroke="#880e4f" stroke-width="2" stroke-dasharray="5,2" d="M398.25,-314.77C398.25,-314.77 398.25,-211.4 398.25,-211.4"/>
<polygon fill="#880e4f" stroke="#880e4f" stroke-width="2" points="401.75,-211.4 398.25,-201.4 394.75,-211.4 401.75,-211.4"/>
<text text-anchor="middle" x="451.5" y="-260.25" font-family="Helvetica,sans-Serif" font-size="10.00">9. Present certificate</text>
<text text-anchor="middle" x="451.5" y="-249.25" font-family="Helvetica,sans-Serif" font-size="10.00">(off&#45;chain)</text>
</g>
<!-- ORDERER -->
<g id="node6" class="node">
<title>ORDERER</title>
<polygon fill="#ff6d00" stroke="black" points="1010,-630.51 866,-630.51 866,-580.51 1010,-580.51 1010,-630.51"/>
<text text-anchor="middle" x="938" y="-608.71" font-family="Helvetica,sans-Serif" font-size="11.00" fill="white">📋 Ordering Service</text>
<text text-anchor="middle" x="938" y="-596.71" font-family="Helvetica,sans-Serif" font-size="11.00" fill="white">(Raft Consensus)</text>
</g>
<!-- PEER1 -->
<g id="node9" class="node">
<title>PEER1</title>
<polygon fill="#ffa000" stroke="black" points="972,-492.88 894,-492.88 894,-456.88 972,-456.88 972,-492.88"/>
<text text-anchor="middle" x="933" y="-478.08" font-family="Helvetica,sans-Serif" font-size="11.00" fill="white">Peer0.Org1</text>
<text text-anchor="middle" x="933" y="-466.08" font-family="Helvetica,sans-Serif" font-size="11.00" fill="white">(CouchDB)</text>
</g>
<!-- ORDERER&#45;&gt;PEER1 -->
<g id="edge5" class="edge">
<title>ORDERER&#45;&gt;PEER1</title>
<path fill="none" stroke="#e65100" d="M933,-580.32C933,-580.32 933,-503.25 933,-503.25"/>
<polygon fill="#e65100" stroke="#e65100" points="936.5,-503.25 933,-493.25 929.5,-503.25 936.5,-503.25"/>
<text text-anchor="middle" x="969.5" y="-536.51" font-family="Helvetica,sans-Serif" font-size="10.00">5. Order &amp; commit</text>
</g>
<!-- PEER2 -->
<g id="node10" class="node">
<title>PEER2</title>
<polygon fill="#ffa000" stroke="black" points="1117,-492.88 1039,-492.88 1039,-456.88 1117,-456.88 1117,-492.88"/>
<text text-anchor="middle" x="1078" y="-478.08" font-family="Helvetica,sans-Serif" font-size="11.00" fill="white">Peer0.Org2</text>
<text text-anchor="middle" x="1078" y="-466.08" font-family="Helvetica,sans-Serif" font-size="11.00" fill="white">(CouchDB)</text>
</g>
<!-- ORDERER&#45;&gt;PEER2 -->
<g id="edge6" class="edge">
<title>ORDERER&#45;&gt;PEER2</title>
<path fill="none" stroke="#e65100" d="M991,-580.46C991,-542.31 991,-474 991,-474 991,-474 1028.83,-474 1028.83,-474"/>
<polygon fill="#e65100" stroke="#e65100" points="1028.83,-477.5 1038.83,-474 1028.83,-470.5 1028.83,-477.5"/>
<text text-anchor="middle" x="1123.5" y="-536.51" font-family="Helvetica,sans-Serif" font-size="10.00">5. Order &amp; commit</text>
</g>
<!-- LEDGER -->
<g id="node7" class="node">
<title>LEDGER</title>
<path fill="#ffb300" stroke="black" d="M1090,-363.35C1090,-366.61 1039.35,-369.25 977,-369.25 914.65,-369.25 864,-366.61 864,-363.35 864,-363.35 864,-310.16 864,-310.16 864,-306.9 914.65,-304.25 977,-304.25 1039.35,-304.25 1090,-306.9 1090,-310.16 1090,-310.16 1090,-363.35 1090,-363.35"/>
<path fill="none" stroke="black" d="M1090,-363.35C1090,-360.09 1039.35,-357.44 977,-357.44 914.65,-357.44 864,-360.09 864,-363.35"/>
<text text-anchor="middle" x="977" y="-339.95" font-family="Helvetica,sans-Serif" font-size="11.00" fill="#4e342e">🔗 Blockchain Ledger</text>
<text text-anchor="middle" x="977" y="-327.95" font-family="Helvetica,sans-Serif" font-size="11.00" fill="#4e342e">(CertID, H(C), Sig, Issuer, Timestamp)</text>
</g>
<!-- LEDGER&#45;&gt;CHAINCODE -->
<g id="edge14" class="edge">
<title>LEDGER&#45;&gt;CHAINCODE</title>
<path fill="none" stroke="#e65100" d="M863.84,-347C863.84,-347 688.26,-347 688.26,-347"/>
<polygon fill="#e65100" stroke="#e65100" points="688.26,-343.5 678.26,-347 688.26,-350.5 688.26,-343.5"/>
</g>
<!-- CHAINCODE&#45;&gt;STU -->
<g id="edge8" class="edge">
<title>CHAINCODE&#45;&gt;STU</title>
<path fill="none" stroke="#2e7d32" stroke-dasharray="5,2" d="M519.98,-309C417.23,-309 250.75,-309 250.75,-309 250.75,-309 250.75,-211.54 250.75,-211.54"/>
<polygon fill="#2e7d32" stroke="#2e7d32" points="254.25,-211.54 250.75,-201.54 247.25,-211.54 254.25,-211.54"/>
<text text-anchor="middle" x="613.5" y="-254.75" font-family="Helvetica,sans-Serif" font-size="10.00">7. Certificate issued</text>
</g>
<!-- CHAINCODE&#45;&gt;ORDERER -->
<g id="edge4" class="edge">
<title>CHAINCODE&#45;&gt;ORDERER</title>
<path fill="none" stroke="#e65100" d="M599.5,-369.38C599.5,-440.87 599.5,-605 599.5,-605 599.5,-605 855.8,-605 855.8,-605"/>
<polygon fill="#e65100" stroke="#e65100" points="855.8,-608.5 865.8,-605 855.8,-601.5 855.8,-608.5"/>
<text text-anchor="middle" x="721.5" y="-472.38" font-family="Helvetica,sans-Serif" font-size="10.00">4. Propose transaction</text>
</g>
<!-- CHAINCODE&#45;&gt;LEDGER -->
<g id="edge13" class="edge">
<title>CHAINCODE&#45;&gt;LEDGER</title>
<path fill="none" stroke="#e65100" d="M678.24,-325C678.24,-325 853.8,-325 853.8,-325"/>
<polygon fill="#e65100" stroke="#e65100" points="853.8,-328.5 863.8,-325 853.8,-321.5 853.8,-328.5"/>
</g>
<!-- COMPARE -->
<g id="node13" class="node">
<title>COMPARE</title>
<polygon fill="#f48fb1" stroke="black" points="706,-208.25 564,-176.25 706,-144.25 848,-176.25 706,-208.25"/>
<text text-anchor="middle" x="706" y="-179.45" font-family="Helvetica,sans-Serif" font-size="11.00" fill="#880e4f">Compare Hashes</text>
<text text-anchor="middle" x="706" y="-167.45" font-family="Helvetica,sans-Serif" font-size="11.00" fill="#880e4f">H_check == H_stored?</text>
</g>
<!-- CHAINCODE&#45;&gt;COMPARE -->
<g id="edge15" class="edge">
<title>CHAINCODE&#45;&gt;COMPARE</title>
<path fill="none" stroke="#880e4f" d="M621,-303.89C621,-303.89 621,-199.21 621,-199.21"/>
<polygon fill="#880e4f" stroke="#880e4f" points="624.5,-199.21 621,-189.21 617.5,-199.21 624.5,-199.21"/>
<text text-anchor="middle" x="775" y="-254.75" font-family="Helvetica,sans-Serif" font-size="10.00">14. Compare hashes</text>
</g>
<!-- PEER1&#45;&gt;LEDGER -->
<g id="edge7" class="edge">
<title>PEER1&#45;&gt;LEDGER</title>
<path fill="none" stroke="#e65100" stroke-width="2" d="M933,-456.82C933,-456.82 933,-379.37 933,-379.37"/>
<polygon fill="#e65100" stroke="#e65100" stroke-width="2" points="936.5,-379.37 933,-369.37 929.5,-379.37 936.5,-379.37"/>
<text text-anchor="middle" x="1010" y="-408.25" font-family="Helvetica,sans-Serif" font-size="10.00">6. Write H(C) to ledger</text>
</g>
<!-- RECOMPUTE -->
<g id="node12" class="node">
<title>RECOMPUTE</title>
<ellipse fill="#f8bbd9" stroke="black" cx="612" cy="-38.63" rx="96.75" ry="22.76"/>
<text text-anchor="middle" x="612" y="-41.83" font-family="Helvetica,sans-Serif" font-size="11.00" fill="#880e4f">Recompute Hash</text>
<text text-anchor="middle" x="612" y="-29.83" font-family="Helvetica,sans-Serif" font-size="11.00" fill="#880e4f">H_check = SHA256(C)</text>
</g>
<!-- VER&#45;&gt;RECOMPUTE -->
<g id="edge11" class="edge">
<title>VER&#45;&gt;RECOMPUTE</title>
<path fill="none" stroke="#880e4f" stroke-width="2" d="M506.05,-176C522.04,-176 534.67,-176 534.67,-176 534.67,-176 534.67,-62.3 534.67,-62.3"/>
<polygon fill="#880e4f" stroke="#880e4f" stroke-width="2" points="538.17,-62.3 534.67,-52.3 531.17,-62.3 538.17,-62.3"/>
<text text-anchor="middle" x="534" y="-100.25" font-family="Helvetica,sans-Serif" font-size="10.00">10. Extract fields</text>
</g>
<!-- RECOMPUTE&#45;&gt;CHAINCODE -->
<g id="edge12" class="edge">
<title>RECOMPUTE&#45;&gt;CHAINCODE</title>
<path fill="none" stroke="#880e4f" stroke-width="2" d="M549.33,-55.94C549.33,-55.94 549.33,-293.8 549.33,-293.8"/>
<polygon fill="#880e4f" stroke="#880e4f" stroke-width="2" points="545.83,-293.8 549.33,-303.8 552.83,-293.8 545.83,-293.8"/>
<text text-anchor="middle" x="1027" y="-173.75" font-family="Helvetica,sans-Serif" font-size="10.00">11. Call VerifyCertificate()</text>
</g>
<!-- RESULT_VALID -->
<g id="node14" class="node">
<title>RESULT_VALID</title>
<path fill="#4caf50" stroke="black" d="M348,-56.63C348,-56.63 242,-56.63 242,-56.63 236,-56.63 230,-50.63 230,-44.63 230,-44.63 230,-32.63 230,-32.63 230,-26.63 236,-20.63 242,-20.63 242,-20.63 348,-20.63 348,-20.63 354,-20.63 360,-26.63 360,-32.63 360,-32.63 360,-44.63 360,-44.63 360,-50.63 354,-56.63 348,-56.63"/>
<text text-anchor="middle" x="295" y="-41.83" font-family="Helvetica,sans-Serif" font-size="11.00" fill="white">✅ VALID</text>
<text text-anchor="middle" x="295" y="-29.83" font-family="Helvetica,sans-Serif" font-size="11.00" fill="white">Certificate Authentic</text>
</g>
<!-- COMPARE&#45;&gt;RESULT_VALID -->
<g id="edge16" class="edge">
<title>COMPARE&#45;&gt;RESULT_VALID</title>
<path fill="none" stroke="#4caf50" stroke-width="2" d="M693.56,-147C628.66,-147 332,-147 332,-147 332,-147 332,-67.01 332,-67.01"/>
<polygon fill="#4caf50" stroke="#4caf50" stroke-width="2" points="335.5,-67.01 332,-57.01 328.5,-67.01 335.5,-67.01"/>
<text text-anchor="middle" x="352" y="-100.25" font-family="Helvetica,sans-Serif" font-size="10.00">H match + not revoked</text>
</g>
<!-- RESULT_INVALID -->
<g id="node15" class="node">
<title>RESULT_INVALID</title>
<path fill="#f44336" stroke="black" d="M983.5,-56.63C983.5,-56.63 876.5,-56.63 876.5,-56.63 870.5,-56.63 864.5,-50.63 864.5,-44.63 864.5,-44.63 864.5,-32.63 864.5,-32.63 864.5,-26.63 870.5,-20.63 876.5,-20.63 876.5,-20.63 983.5,-20.63 983.5,-20.63 989.5,-20.63 995.5,-26.63 995.5,-32.63 995.5,-32.63 995.5,-44.63 995.5,-44.63 995.5,-50.63 989.5,-56.63 983.5,-56.63"/>
<text text-anchor="middle" x="930" y="-41.83" font-family="Helvetica,sans-Serif" font-size="11.00" fill="white">❌ INVALID</text>
<text text-anchor="middle" x="930" y="-29.83" font-family="Helvetica,sans-Serif" font-size="11.00" fill="white">Certificate Tampered</text>
</g>
<!-- COMPARE&#45;&gt;RESULT_INVALID -->
<g id="edge17" class="edge">
<title>COMPARE&#45;&gt;RESULT_INVALID</title>
<path fill="none" stroke="#f44336" stroke-width="2" d="M778.44,-160.4C778.44,-124.08 778.44,-38 778.44,-38 778.44,-38 854.4,-38 854.4,-38"/>
<polygon fill="#f44336" stroke="#f44336" stroke-width="2" points="854.4,-41.5 864.4,-38 854.4,-34.5 854.4,-41.5"/>
<text text-anchor="middle" x="869.5" y="-100.25" font-family="Helvetica,sans-Serif" font-size="10.00">H mismatch OR revoked</text>
</g>
</g>
</svg>
