<?xml version="1.0" encoding="UTF-8" standalone="no"?>
<!DOCTYPE svg PUBLIC "-//W3C//DTD SVG 1.1//EN"
 "http://www.w3.org/Graphics/SVG/1.1/DTD/svg11.dtd">
<!-- Generated by graphviz version 2.43.0 (0)
 -->
<!-- Title: SecurityModel Pages: 1 -->
<svg width="1437pt" height="678pt"
 viewBox="0.00 0.00 1437.00 677.91" xmlns="http://www.w3.org/2000/svg" xmlns:xlink="http://www.w3.org/1999/xlink">
<g id="graph0" class="graph" transform="scale(1 1) rotate(0) translate(36 641.91)">
<title>SecurityModel</title>
<polygon fill="#f9fbe7" stroke="transparent" points="-36,36 -36,-641.91 1401,-641.91 1401,36 -36,36"/>
<text text-anchor="middle" x="682.5" y="-589.91" font-family="Helvetica,sans-Serif" font-weight="bold" font-size="15.00">BCMS Security Model — Dolev&#45;Yao Attacker &amp; Tamarin Lemmas</text>
<g id="clust1" class="cluster">
<title>cluster_honest</title>
<polygon fill="#e8f5e9" stroke="#2e7d32" points="277,-109 277,-490.43 446,-490.43 446,-109 277,-109"/>
<text text-anchor="middle" x="361.5" y="-476.83" font-family="Helvetica,sans-Serif" font-weight="bold" font-size="12.00">Honest Parties</text>
</g>
<g id="clust2" class="cluster">
<title>cluster_attacker</title>
<polygon fill="#ffebee" stroke="#b71c1c" points="749,-237 749,-340.95 1357,-340.95 1357,-237 749,-237"/>
<text text-anchor="middle" x="1053" y="-327.35" font-family="Helvetica,sans-Serif" font-weight="bold" font-size="12.00">Dolev&#45;Yao Adversary</text>
</g>
<!-- KEYGEN -->
<g id="node1" class="node">
<title>KEYGEN</title>
<ellipse fill="#4caf50" stroke="black" cx="70" cy="-435.43" rx="70.01" ry="28.98"/>
<text text-anchor="middle" x="70" y="-443.93" font-family="Helvetica,sans-Serif" font-size="10.00" fill="white">Key Generation</text>
<text text-anchor="middle" x="70" y="-432.93" font-family="Helvetica,sans-Serif" font-size="10.00" fill="white">(Org1MSP)</text>
<text text-anchor="middle" x="70" y="-421.93" font-family="Helvetica,sans-Serif" font-size="10.00" fill="white">pk_U = pk(sk_U)</text>
</g>
<!-- ISSUE -->
<g id="node2" class="node">
<title>ISSUE</title>
<polygon fill="#388e3c" stroke="black" points="425,-461.43 299,-461.43 299,-409.43 425,-409.43 425,-461.43"/>
<text text-anchor="middle" x="362" y="-449.43" font-family="Helvetica,sans-Serif" font-size="10.00" fill="white">IssueCertificate Rule</text>
<text text-anchor="middle" x="362" y="-438.43" font-family="Helvetica,sans-Serif" font-size="10.00" fill="white">C = cert(ID, fields...)</text>
<text text-anchor="middle" x="362" y="-427.43" font-family="Helvetica,sans-Serif" font-size="10.00" fill="white">H(C) = SHA256(fields)</text>
<text text-anchor="middle" x="362" y="-416.43" font-family="Helvetica,sans-Serif" font-size="10.00" fill="white">Sig = Sign(sk_U, H(C))</text>
</g>
<!-- KEYGEN&#45;&gt;ISSUE -->
<g id="edge1" class="edge">
<title>KEYGEN&#45;&gt;ISSUE</title>
<path fill="none" stroke="#2e7d32" stroke-width="2" d="M140.32,-435C140.32,-435 288.77,-435 288.77,-435"/>
<polygon fill="#2e7d32" stroke="#2e7d32" stroke-width="2" points="288.77,-438.5 298.77,-435 288.77,-431.5 288.77,-438.5"/>
</g>
<!-- L3 -->
<g id="node11" class="node">
<title>L3</title>
<path fill="#1565c0" stroke="black" d="M114.5,-163.5C114.5,-163.5 25.5,-163.5 25.5,-163.5 19.5,-163.5 13.5,-157.5 13.5,-151.5 13.5,-151.5 13.5,-134.5 13.5,-134.5 13.5,-128.5 19.5,-122.5 25.5,-122.5 25.5,-122.5 114.5,-122.5 114.5,-122.5 120.5,-122.5 126.5,-128.5 126.5,-134.5 126.5,-134.5 126.5,-151.5 126.5,-151.5 126.5,-157.5 120.5,-163.5 114.5,-163.5"/>
<text text-anchor="middle" x="70" y="-151.5" font-family="Helvetica,sans-Serif" font-size="10.00" fill="white">L3: Key Secrecy</text>
<text text-anchor="middle" x="70" y="-140.5" font-family="Helvetica,sans-Serif" font-size="10.00" fill="white">sk_U never reaches</text>
<text text-anchor="middle" x="70" y="-129.5" font-family="Helvetica,sans-Serif" font-size="10.00" fill="white">attacker</text>
</g>
<!-- KEYGEN&#45;&gt;L3 -->
<g id="edge10" class="edge">
<title>KEYGEN&#45;&gt;L3</title>
<path fill="none" stroke="#1565c0" stroke-dasharray="5,2" d="M70,-406.32C70,-406.32 70,-173.51 70,-173.51"/>
<polygon fill="#1565c0" stroke="#1565c0" points="73.5,-173.51 70,-163.51 66.5,-173.51 73.5,-173.51"/>
<text text-anchor="middle" x="97" y="-276.28" font-family="Helvetica,sans-Serif" font-size="9.00">Key secrecy</text>
</g>
<!-- STORE -->
<g id="node3" class="node">
<title>STORE</title>
<polygon fill="#2e7d32" stroke="black" points="437.5,-298.98 286.5,-298.98 286.5,-257.98 437.5,-257.98 437.5,-298.98"/>
<text text-anchor="middle" x="362" y="-286.98" font-family="Helvetica,sans-Serif" font-size="10.00" fill="white">BlockchainStore Rule</text>
<text text-anchor="middle" x="362" y="-275.98" font-family="Helvetica,sans-Serif" font-size="10.00" fill="white">(CertID, H(C), Sig) → Ledger</text>
<text text-anchor="middle" x="362" y="-264.98" font-family="Helvetica,sans-Serif" font-size="10.00" fill="white">Immutable write</text>
</g>
<!-- ISSUE&#45;&gt;STORE -->
<g id="edge2" class="edge">
<title>ISSUE&#45;&gt;STORE</title>
<path fill="none" stroke="#2e7d32" stroke-width="2" d="M362,-409.16C362,-409.16 362,-309.3 362,-309.3"/>
<polygon fill="#2e7d32" stroke="#2e7d32" stroke-width="2" points="365.5,-309.3 362,-299.3 358.5,-309.3 365.5,-309.3"/>
<text text-anchor="middle" x="388" y="-356.75" font-family="Helvetica,sans-Serif" font-size="9.00">2. Store to blockchain</text>
</g>
<!-- CHANNEL -->
<g id="node16" class="node">
<title>CHANNEL</title>
<polygon fill="#fffde7" stroke="#f57f17" stroke-dasharray="5,2" points="780.5,-580.91 587.5,-580.91 587.5,-544.91 780.5,-544.91 780.5,-580.91"/>
<text text-anchor="middle" x="684" y="-565.91" font-family="Helvetica,sans-Serif" font-size="10.00">Public Channel (Internet)</text>
<text text-anchor="middle" x="684" y="-554.91" font-family="Helvetica,sans-Serif" font-size="10.00">Attacker controls all communication</text>
</g>
<!-- ISSUE&#45;&gt;CHANNEL -->
<g id="edge4" class="edge">
<title>ISSUE&#45;&gt;CHANNEL</title>
<path fill="none" stroke="#9e9e9e" stroke-dasharray="5,2" d="M425.22,-426C495.81,-426 600.25,-426 600.25,-426 600.25,-426 600.25,-534.73 600.25,-534.73"/>
<polygon fill="#9e9e9e" stroke="#9e9e9e" points="596.75,-534.73 600.25,-544.73 603.75,-534.73 596.75,-534.73"/>
<text text-anchor="middle" x="669" y="-504.71" font-family="Helvetica,sans-Serif" font-size="9.00">Msg exposed to attacker</text>
</g>
<!-- VERIFY -->
<g id="node4" class="node">
<title>VERIFY</title>
<polygon fill="#1b5e20" stroke="black" points="435,-169 285,-169 285,-117 435,-117 435,-169"/>
<text text-anchor="middle" x="360" y="-157" font-family="Helvetica,sans-Serif" font-size="10.00" fill="white">VerifyCertificate Rule</text>
<text text-anchor="middle" x="360" y="-146" font-family="Helvetica,sans-Serif" font-size="10.00" fill="white">H_check = SHA256(fields)</text>
<text text-anchor="middle" x="360" y="-135" font-family="Helvetica,sans-Serif" font-size="10.00" fill="white">H_check == H_stored?</text>
<text text-anchor="middle" x="360" y="-124" font-family="Helvetica,sans-Serif" font-size="10.00" fill="white">Verify(pk_U, Sig, H_check)?</text>
</g>
<!-- STORE&#45;&gt;VERIFY -->
<g id="edge3" class="edge">
<title>STORE&#45;&gt;VERIFY</title>
<path fill="none" stroke="#2e7d32" stroke-width="2" d="M360.75,-257.9C360.75,-257.9 360.75,-179.36 360.75,-179.36"/>
<polygon fill="#2e7d32" stroke="#2e7d32" stroke-width="2" points="364.25,-179.36 360.75,-169.36 357.25,-179.36 364.25,-179.36"/>
<text text-anchor="middle" x="386.5" y="-204.8" font-family="Helvetica,sans-Serif" font-size="9.00">3. Read on verification</text>
</g>
<!-- L1 -->
<g id="node9" class="node">
<title>L1</title>
<path fill="#1565c0" stroke="black" d="M601,-163.5C601,-163.5 497,-163.5 497,-163.5 491,-163.5 485,-157.5 485,-151.5 485,-151.5 485,-134.5 485,-134.5 485,-128.5 491,-122.5 497,-122.5 497,-122.5 601,-122.5 601,-122.5 607,-122.5 613,-128.5 613,-134.5 613,-134.5 613,-151.5 613,-151.5 613,-157.5 607,-163.5 601,-163.5"/>
<text text-anchor="middle" x="549" y="-151.5" font-family="Helvetica,sans-Serif" font-size="10.00" fill="white">L1: Authentication</text>
<text text-anchor="middle" x="549" y="-140.5" font-family="Helvetica,sans-Serif" font-size="10.00" fill="white">Verifier accepts ONLY</text>
<text text-anchor="middle" x="549" y="-129.5" font-family="Helvetica,sans-Serif" font-size="10.00" fill="white">university&#45;issued certs</text>
</g>
<!-- STORE&#45;&gt;L1 -->
<g id="edge11" class="edge">
<title>STORE&#45;&gt;L1</title>
<path fill="none" stroke="#1565c0" stroke-dasharray="5,2" d="M437.67,-268C484.7,-268 536.25,-268 536.25,-268 536.25,-268 536.25,-173.64 536.25,-173.64"/>
<polygon fill="#1565c0" stroke="#1565c0" points="539.75,-173.64 536.25,-163.64 532.75,-173.64 539.75,-173.64"/>
<text text-anchor="middle" x="591.5" y="-204.8" font-family="Helvetica,sans-Serif" font-size="9.00">RBAC enforcement</text>
</g>
<!-- L2 -->
<g id="node10" class="node">
<title>L2</title>
<path fill="#1565c0" stroke="black" d="M758.5,-163.5C758.5,-163.5 675.5,-163.5 675.5,-163.5 669.5,-163.5 663.5,-157.5 663.5,-151.5 663.5,-151.5 663.5,-134.5 663.5,-134.5 663.5,-128.5 669.5,-122.5 675.5,-122.5 675.5,-122.5 758.5,-122.5 758.5,-122.5 764.5,-122.5 770.5,-128.5 770.5,-134.5 770.5,-134.5 770.5,-151.5 770.5,-151.5 770.5,-157.5 764.5,-163.5 758.5,-163.5"/>
<text text-anchor="middle" x="717" y="-151.5" font-family="Helvetica,sans-Serif" font-size="10.00" fill="white">L2: Integrity</text>
<text text-anchor="middle" x="717" y="-140.5" font-family="Helvetica,sans-Serif" font-size="10.00" fill="white">H(C) binds content</text>
<text text-anchor="middle" x="717" y="-129.5" font-family="Helvetica,sans-Serif" font-size="10.00" fill="white">after issuance</text>
</g>
<!-- STORE&#45;&gt;L2 -->
<g id="edge12" class="edge">
<title>STORE&#45;&gt;L2</title>
<path fill="none" stroke="#1565c0" stroke-dasharray="5,2" d="M437.62,-288C540.12,-288 710.5,-288 710.5,-288 710.5,-288 710.5,-173.77 710.5,-173.77"/>
<polygon fill="#1565c0" stroke="#1565c0" points="714,-173.77 710.5,-163.77 707,-173.77 714,-173.77"/>
<text text-anchor="middle" x="758.5" y="-204.8" font-family="Helvetica,sans-Serif" font-size="9.00">Hash immutability</text>
</g>
<!-- L5 -->
<g id="node13" class="node">
<title>L5</title>
<path fill="#1565c0" stroke="black" d="M922.5,-41C922.5,-41 819.5,-41 819.5,-41 813.5,-41 807.5,-35 807.5,-29 807.5,-29 807.5,-12 807.5,-12 807.5,-6 813.5,0 819.5,0 819.5,0 922.5,0 922.5,0 928.5,0 934.5,-6 934.5,-12 934.5,-12 934.5,-29 934.5,-29 934.5,-35 928.5,-41 922.5,-41"/>
<text text-anchor="middle" x="871" y="-29" font-family="Helvetica,sans-Serif" font-size="10.00" fill="white">L5: Non&#45;Repudiation</text>
<text text-anchor="middle" x="871" y="-18" font-family="Helvetica,sans-Serif" font-size="10.00" fill="white">Tx committed BEFORE</text>
<text text-anchor="middle" x="871" y="-7" font-family="Helvetica,sans-Serif" font-size="10.00" fill="white">verification</text>
</g>
<!-- STORE&#45;&gt;L5 -->
<g id="edge13" class="edge">
<title>STORE&#45;&gt;L5</title>
<path fill="none" stroke="#1565c0" stroke-dasharray="5,2" d="M437.86,-278C519.64,-278 638.25,-278 638.25,-278 638.25,-278 638.25,-20 638.25,-20 638.25,-20 797.4,-20 797.4,-20"/>
<polygon fill="#1565c0" stroke="#1565c0" points="797.4,-23.5 807.4,-20 797.4,-16.5 797.4,-23.5"/>
<text text-anchor="middle" x="897" y="-140.8" font-family="Helvetica,sans-Serif" font-size="9.00">Tx ordering</text>
</g>
<!-- L6 -->
<g id="node14" class="node">
<title>L6</title>
<path fill="#1565c0" stroke="black" d="M393,-41C393,-41 327,-41 327,-41 321,-41 315,-35 315,-29 315,-29 315,-12 315,-12 315,-6 321,0 327,0 327,0 393,0 393,0 399,0 405,-6 405,-12 405,-12 405,-29 405,-29 405,-35 399,-41 393,-41"/>
<text text-anchor="middle" x="360" y="-29" font-family="Helvetica,sans-Serif" font-size="10.00" fill="white">L6: Revocation</text>
<text text-anchor="middle" x="360" y="-18" font-family="Helvetica,sans-Serif" font-size="10.00" fill="white">Revoked certs</text>
<text text-anchor="middle" x="360" y="-7" font-family="Helvetica,sans-Serif" font-size="10.00" fill="white">fail verification</text>
</g>
<!-- VERIFY&#45;&gt;L6 -->
<g id="edge14" class="edge">
<title>VERIFY&#45;&gt;L6</title>
<path fill="none" stroke="#1565c0" stroke-dasharray="5,2" d="M360,-116.72C360,-116.72 360,-51.07 360,-51.07"/>
<polygon fill="#1565c0" stroke="#1565c0" points="363.5,-51.07 360,-41.07 356.5,-51.07 363.5,-51.07"/>
<text text-anchor="middle" x="400" y="-76.8" font-family="Helvetica,sans-Serif" font-size="9.00">Revocation check</text>
</g>
<!-- ATK_NET -->
<g id="node5" class="node">
<title>ATK_NET</title>
<polygon fill="#d32f2f" stroke="black" points="1091.07,-435.43 1049.54,-468.88 966.47,-468.88 924.94,-435.43 966.47,-401.98 1049.54,-401.98 1091.07,-435.43"/>
<text text-anchor="middle" x="1008" y="-443.93" font-family="Helvetica,sans-Serif" font-size="10.00" fill="white">Network Control</text>
<text text-anchor="middle" x="1008" y="-432.93" font-family="Helvetica,sans-Serif" font-size="10.00" fill="white">Intercept / Modify</text>
<text text-anchor="middle" x="1008" y="-421.93" font-family="Helvetica,sans-Serif" font-size="10.00" fill="white">Replay / Delay</text>
</g>
<!-- ATK_FORGE -->
<g id="node6" class="node">
<title>ATK_FORGE</title>
<polygon fill="#c62828" stroke="black" points="1095.23,-278.48 1051.62,-311.93 964.39,-311.93 920.77,-278.48 964.39,-245.02 1051.62,-245.02 1095.23,-278.48"/>
<text text-anchor="middle" x="1008" y="-286.98" font-family="Helvetica,sans-Serif" font-size="10.00" fill="white">Forgery Attempt</text>
<text text-anchor="middle" x="1008" y="-275.98" font-family="Helvetica,sans-Serif" font-size="10.00" fill="white">Generate fake cert</text>
<text text-anchor="middle" x="1008" y="-264.98" font-family="Helvetica,sans-Serif" font-size="10.00" fill="white">(without sk_U)</text>
</g>
<!-- ATK_NET&#45;&gt;ATK_FORGE -->
<g id="edge6" class="edge">
<title>ATK_NET&#45;&gt;ATK_FORGE</title>
<path fill="none" stroke="#d32f2f" d="M1008,-401.76C1008,-401.76 1008,-322.09 1008,-322.09"/>
<polygon fill="#d32f2f" stroke="#d32f2f" points="1011.5,-322.09 1008,-312.09 1004.5,-322.09 1011.5,-322.09"/>
<text text-anchor="middle" x="1036" y="-361.75" font-family="Helvetica,sans-Serif" font-size="9.00">Has pk_U</text>
<text text-anchor="middle" x="1036" y="-351.75" font-family="Helvetica,sans-Serif" font-size="9.00">Tries forgery</text>
</g>
<!-- ATK_REPLAY -->
<g id="node7" class="node">
<title>ATK_REPLAY</title>
<polygon fill="#b71c1c" stroke="black" points="1349.13,-278.48 1298.07,-302.97 1195.94,-302.97 1144.88,-278.48 1195.94,-253.99 1298.07,-253.99 1349.13,-278.48"/>
<text text-anchor="middle" x="1247" y="-281.48" font-family="Helvetica,sans-Serif" font-size="10.00" fill="white">Replay Attack</text>
<text text-anchor="middle" x="1247" y="-270.48" font-family="Helvetica,sans-Serif" font-size="10.00" fill="white">Reuse old (certID, Sig)</text>
</g>
<!-- ATK_NET&#45;&gt;ATK_REPLAY -->
<g id="edge7" class="edge">
<title>ATK_NET&#45;&gt;ATK_REPLAY</title>
<path fill="none" stroke="#d32f2f" d="M1090.59,-435C1159.67,-435 1247,-435 1247,-435 1247,-435 1247,-313.28 1247,-313.28"/>
<polygon fill="#d32f2f" stroke="#d32f2f" points="1250.5,-313.28 1247,-303.28 1243.5,-313.28 1250.5,-313.28"/>
<text text-anchor="middle" x="1213.5" y="-361.75" font-family="Helvetica,sans-Serif" font-size="9.00">Has old msgs</text>
<text text-anchor="middle" x="1213.5" y="-351.75" font-family="Helvetica,sans-Serif" font-size="9.00">Tries replay</text>
</g>
<!-- L4 -->
<g id="node12" class="node">
<title>L4</title>
<path fill="#1565c0" stroke="black" d="M1101,-163.5C1101,-163.5 985,-163.5 985,-163.5 979,-163.5 973,-157.5 973,-151.5 973,-151.5 973,-134.5 973,-134.5 973,-128.5 979,-122.5 985,-122.5 985,-122.5 1101,-122.5 1101,-122.5 1107,-122.5 1113,-128.5 1113,-134.5 1113,-134.5 1113,-151.5 1113,-151.5 1113,-157.5 1107,-163.5 1101,-163.5"/>
<text text-anchor="middle" x="1043" y="-151.5" font-family="Helvetica,sans-Serif" font-size="10.00" fill="white">L4: Forgery Resistance</text>
<text text-anchor="middle" x="1043" y="-140.5" font-family="Helvetica,sans-Serif" font-size="10.00" fill="white">Attacker cannot generate</text>
<text text-anchor="middle" x="1043" y="-129.5" font-family="Helvetica,sans-Serif" font-size="10.00" fill="white">valid certificate</text>
</g>
<!-- ATK_FORGE&#45;&gt;L4 -->
<g id="edge8" class="edge">
<title>ATK_FORGE&#45;&gt;L4</title>
<path fill="none" stroke="#d32f2f" stroke-width="2" d="M1034.19,-244.99C1034.19,-244.99 1034.19,-168.89 1034.19,-168.89"/>
<polygon fill="#d32f2f" stroke="#d32f2f" stroke-width="2" points="1029.19,-164.89 1039.19,-164.89 1039.19,-166.89 1029.19,-166.89 1029.19,-164.89"/>
<polyline fill="none" stroke="#d32f2f" stroke-width="2" points="1034.19,-163.89 1034.19,-168.89 "/>
<text text-anchor="middle" x="1071.5" y="-204.8" font-family="Helvetica,sans-Serif" font-size="9.00">BLOCKED by</text>
</g>
<!-- L7 -->
<g id="node15" class="node">
<title>L7</title>
<path fill="#1565c0" stroke="black" d="M1297,-41C1297,-41 1197,-41 1197,-41 1191,-41 1185,-35 1185,-29 1185,-29 1185,-12 1185,-12 1185,-6 1191,0 1197,0 1197,0 1297,0 1297,0 1303,0 1309,-6 1309,-12 1309,-12 1309,-29 1309,-29 1309,-35 1303,-41 1297,-41"/>
<text text-anchor="middle" x="1247" y="-29" font-family="Helvetica,sans-Serif" font-size="10.00" fill="white">L7: Replay Resistance</text>
<text text-anchor="middle" x="1247" y="-18" font-family="Helvetica,sans-Serif" font-size="10.00" fill="white">CertID must exist</text>
<text text-anchor="middle" x="1247" y="-7" font-family="Helvetica,sans-Serif" font-size="10.00" fill="white">on&#45;chain</text>
</g>
<!-- ATK_REPLAY&#45;&gt;L7 -->
<g id="edge9" class="edge">
<title>ATK_REPLAY&#45;&gt;L7</title>
<path fill="none" stroke="#d32f2f" stroke-width="2" d="M1247,-253.74C1247,-253.74 1247,-46.15 1247,-46.15"/>
<polygon fill="#d32f2f" stroke="#d32f2f" stroke-width="2" points="1242,-42.15 1252,-42.15 1252,-44.15 1242,-44.15 1242,-42.15"/>
<polyline fill="none" stroke="#d32f2f" stroke-width="2" points="1247,-41.15 1247,-46.15 "/>
<text text-anchor="middle" x="1275.5" y="-140.8" font-family="Helvetica,sans-Serif" font-size="9.00">BLOCKED by</text>
</g>
<!-- ATK_KNOWS -->
<g id="node8" class="node">
<title>ATK_KNOWS</title>
<polygon fill="#ffcdd2" stroke="black" points="864.5,-304.48 757.5,-304.48 757.5,-252.48 870.5,-252.48 870.5,-298.48 864.5,-304.48"/>
<polyline fill="none" stroke="black" points="864.5,-304.48 864.5,-298.48 "/>
<polyline fill="none" stroke="black" points="870.5,-298.48 864.5,-298.48 "/>
<text text-anchor="middle" x="814" y="-292.48" font-family="Helvetica,sans-Serif" font-size="10.00" fill="#b71c1c">Attacker Knows:</text>
<text text-anchor="middle" x="814" y="-281.48" font-family="Helvetica,sans-Serif" font-size="10.00" fill="#b71c1c">✓ pk_U (public key)</text>
<text text-anchor="middle" x="814" y="-270.48" font-family="Helvetica,sans-Serif" font-size="10.00" fill="#b71c1c">✓ All messages</text>
<text text-anchor="middle" x="814" y="-259.48" font-family="Helvetica,sans-Serif" font-size="10.00" fill="#b71c1c">✗ sk_U (BLOCKED)</text>
</g>
<!-- CHANNEL&#45;&gt;ATK_NET -->
<g id="edge5" class="edge">
<title>CHANNEL&#45;&gt;ATK_NET</title>
<path fill="none" stroke="#d32f2f" stroke-width="2" d="M769,-544.85C769,-511.58 769,-444 769,-444 769,-444 925.32,-444 925.32,-444"/>
<polygon fill="#d32f2f" stroke="#d32f2f" stroke-width="2" points="925.32,-447.5 935.32,-444 925.32,-440.5 925.32,-447.5"/>
</g>
</g>
</svg>
