<?xml version="1.0" encoding="UTF-8" standalone="no"?>
<!DOCTYPE svg PUBLIC "-//W3C//DTD SVG 1.1//EN"
 "http://www.w3.org/Graphics/SVG/1.1/DTD/svg11.dtd">
<!-- Generated by graphviz version 2.43.0 (0)
 -->
<!-- Title: SystemArchitecture Pages: 1 -->
<svg width="834pt" height="909pt"
 viewBox="0.00 0.00 833.50 908.75" xmlns="http://www.w3.org/2000/svg" xmlns:xlink="http://www.w3.org/1999/xlink">
<g id="graph0" class="graph" transform="scale(1 1) rotate(0) translate(36 872.75)">
<title>SystemArchitecture</title>
<polygon fill="#f3f4f6" stroke="transparent" points="-36,36 -36,-872.75 797.5,-872.75 797.5,36 -36,36"/>
<text text-anchor="middle" x="380.75" y="-820.75" font-family="Helvetica,sans-Serif" font-weight="bold" font-size="15.00">BCMS Complete System Architecture</text>
<text text-anchor="middle" x="380.75" y="-803.75" font-family="Helvetica,sans-Serif" font-weight="bold" font-size="15.00">Hyperledger Fabric v2.5 | Go Chaincode | Node.js API</text>
<g id="clust3" class="cluster">
<title>cluster_fabric</title>
<polygon fill="#fff8e1" stroke="#f57f17" points="207.5,-101.25 207.5,-304.25 674.5,-304.25 674.5,-101.25 207.5,-101.25"/>
<text text-anchor="middle" x="441" y="-290.65" font-family="Helvetica,sans-Serif" font-weight="bold" font-size="12.00">Hyperledger Fabric Network (mychannel)</text>
</g>
<g id="clust4" class="cluster">
<title>cluster_org1net</title>
<polygon fill="#e3f2fd" stroke="#0d47a1" points="351.5,-142.62 351.5,-241.88 484.5,-241.88 484.5,-142.62 351.5,-142.62"/>
<text text-anchor="middle" x="418" y="-228.28" font-family="Helvetica,sans-Serif" font-weight="bold" font-size="12.00">Org1 (University)</text>
</g>
<g id="clust5" class="cluster">
<title>cluster_org2net</title>
<polygon fill="#e8f5e9" stroke="#1b5e20" points="215.5,-142.62 215.5,-241.88 343.5,-241.88 343.5,-142.62 215.5,-142.62"/>
<text text-anchor="middle" x="279.5" y="-228.28" font-family="Helvetica,sans-Serif" font-weight="bold" font-size="12.00">Org2 (Employer)</text>
</g>
<g id="clust7" class="cluster">
<title>cluster_chaincode</title>
<polygon fill="#f3e5f5" stroke="#6a1b9a" points="492.5,-109.25 492.5,-275.25 666.5,-275.25 666.5,-109.25 492.5,-109.25"/>
<text text-anchor="middle" x="579.5" y="-261.65" font-family="Helvetica,sans-Serif" font-weight="bold" font-size="12.00">BCMS Chaincode (Go)</text>
</g>
<g id="clust2" class="cluster">
<title>cluster_api</title>
<polygon fill="#e8eaf6" stroke="#3f51b5" points="81.5,-469.25 81.5,-707.75 265.5,-707.75 265.5,-469.25 81.5,-469.25"/>
<text text-anchor="middle" x="173.5" y="-694.15" font-family="Helvetica,sans-Serif" font-weight="bold" font-size="12.00">Application Layer</text>
</g>
<g id="clust9" class="cluster">
<title>cluster_monitor</title>
<polygon fill="#e0f2f1" stroke="#004d40" points="293.5,-471.75 293.5,-565.75 580.5,-565.75 580.5,-471.75 293.5,-471.75"/>
<text text-anchor="middle" x="437" y="-552.15" font-family="Helvetica,sans-Serif" font-weight="bold" font-size="12.00">Monitoring &amp; Benchmarking</text>
</g>
<!-- U1 -->
<g id="node1" class="node">
<title>U1</title>
<path fill="#2196f3" stroke="black" d="M75,-794.75C75,-794.75 12,-794.75 12,-794.75 6,-794.75 0,-788.75 0,-782.75 0,-782.75 0,-770.75 0,-770.75 0,-764.75 6,-758.75 12,-758.75 12,-758.75 75,-758.75 75,-758.75 81,-758.75 87,-764.75 87,-770.75 87,-770.75 87,-782.75 87,-782.75 87,-788.75 81,-794.75 75,-794.75"/>
<text text-anchor="middle" x="43.5" y="-779.75" font-family="Helvetica,sans-Serif" font-size="10.00" fill="white">🎓 University</text>
<text text-anchor="middle" x="43.5" y="-768.75" font-family="Helvetica,sans-Serif" font-size="10.00" fill="white">(Issuer)</text>
</g>
<!-- API -->
<g id="node4" class="node">
<title>API</title>
<polygon fill="#3f51b5" stroke="black" points="256,-657.75 97,-657.75 97,-616.75 256,-616.75 256,-657.75"/>
<text text-anchor="middle" x="176.5" y="-645.75" font-family="Helvetica,sans-Serif" font-size="10.00" fill="white">REST API (Node.js)</text>
<text text-anchor="middle" x="176.5" y="-634.75" font-family="Helvetica,sans-Serif" font-size="10.00" fill="white">bcms&#45;api/</text>
<text text-anchor="middle" x="176.5" y="-623.75" font-family="Helvetica,sans-Serif" font-size="10.00" fill="white">Express + Helmet + Winston</text>
</g>
<!-- U1&#45;&gt;API -->
<g id="edge1" class="edge">
<title>U1&#45;&gt;API</title>
<path fill="none" stroke="#2196f3" stroke-width="2" d="M87.19,-776C101.48,-776 113.75,-776 113.75,-776 113.75,-776 113.75,-668.02 113.75,-668.02"/>
<polygon fill="#2196f3" stroke="#2196f3" stroke-width="2" points="117.25,-668.02 113.75,-658.02 110.25,-668.02 117.25,-668.02"/>
<text text-anchor="middle" x="66" y="-718.55" font-family="Helvetica,sans-Serif" font-size="9.00">Issue cert</text>
</g>
<!-- U2 -->
<g id="node2" class="node">
<title>U2</title>
<path fill="#4caf50" stroke="black" d="M210.5,-794.75C210.5,-794.75 142.5,-794.75 142.5,-794.75 136.5,-794.75 130.5,-788.75 130.5,-782.75 130.5,-782.75 130.5,-770.75 130.5,-770.75 130.5,-764.75 136.5,-758.75 142.5,-758.75 142.5,-758.75 210.5,-758.75 210.5,-758.75 216.5,-758.75 222.5,-764.75 222.5,-770.75 222.5,-770.75 222.5,-782.75 222.5,-782.75 222.5,-788.75 216.5,-794.75 210.5,-794.75"/>
<text text-anchor="middle" x="176.5" y="-779.75" font-family="Helvetica,sans-Serif" font-size="10.00" fill="white">👨‍🎓 Student</text>
<text text-anchor="middle" x="176.5" y="-768.75" font-family="Helvetica,sans-Serif" font-size="10.00" fill="white">(Holder)</text>
</g>
<!-- U2&#45;&gt;API -->
<g id="edge3" class="edge">
<title>U2&#45;&gt;API</title>
<path fill="none" stroke="#4caf50" stroke-dasharray="5,2" d="M176.5,-758.51C176.5,-758.51 176.5,-667.76 176.5,-667.76"/>
<polygon fill="#4caf50" stroke="#4caf50" points="180,-667.76 176.5,-657.76 173,-667.76 180,-667.76"/>
<text text-anchor="middle" x="195" y="-718.55" font-family="Helvetica,sans-Serif" font-size="9.00">Get cert</text>
</g>
<!-- U3 -->
<g id="node3" class="node">
<title>U3</title>
<path fill="#9c27b0" stroke="black" d="M337,-794.75C337,-794.75 278,-794.75 278,-794.75 272,-794.75 266,-788.75 266,-782.75 266,-782.75 266,-770.75 266,-770.75 266,-764.75 272,-758.75 278,-758.75 278,-758.75 337,-758.75 337,-758.75 343,-758.75 349,-764.75 349,-770.75 349,-770.75 349,-782.75 349,-782.75 349,-788.75 343,-794.75 337,-794.75"/>
<text text-anchor="middle" x="307.5" y="-779.75" font-family="Helvetica,sans-Serif" font-size="10.00" fill="white">🔍 Employer</text>
<text text-anchor="middle" x="307.5" y="-768.75" font-family="Helvetica,sans-Serif" font-size="10.00" fill="white">(Verifier)</text>
</g>
<!-- U3&#45;&gt;API -->
<g id="edge2" class="edge">
<title>U3&#45;&gt;API</title>
<path fill="none" stroke="#9c27b0" stroke-width="2" d="M270,-758.57C270,-722.21 270,-644 270,-644 270,-644 266.2,-644 266.2,-644"/>
<polygon fill="#9c27b0" stroke="#9c27b0" stroke-width="2" points="266.2,-640.5 256.2,-644 266.2,-647.5 266.2,-640.5"/>
<text text-anchor="middle" x="330.5" y="-718.55" font-family="Helvetica,sans-Serif" font-size="9.00">Verify cert</text>
</g>
<!-- GATEWAY -->
<g id="node5" class="node">
<title>GATEWAY</title>
<polygon fill="#5c6bc0" stroke="black" points="258,-518.25 89,-518.25 89,-477.25 258,-477.25 258,-518.25"/>
<text text-anchor="middle" x="173.5" y="-506.25" font-family="Helvetica,sans-Serif" font-size="10.00" fill="white">Fabric Gateway</text>
<text text-anchor="middle" x="173.5" y="-495.25" font-family="Helvetica,sans-Serif" font-size="10.00" fill="white">(@hyperledger/fabric&#45;gateway)</text>
<text text-anchor="middle" x="173.5" y="-484.25" font-family="Helvetica,sans-Serif" font-size="10.00" fill="white">gRPC connection</text>
</g>
<!-- API&#45;&gt;GATEWAY -->
<g id="edge4" class="edge">
<title>API&#45;&gt;GATEWAY</title>
<path fill="none" stroke="#3f51b5" stroke-width="2" d="M176.5,-616.67C176.5,-616.67 176.5,-528.42 176.5,-528.42"/>
<polygon fill="#3f51b5" stroke="#3f51b5" stroke-width="2" points="180,-528.42 176.5,-518.42 173,-528.42 180,-528.42"/>
<text text-anchor="middle" x="195.5" y="-576.55" font-family="Helvetica,sans-Serif" font-size="9.00">SDK calls</text>
</g>
<!-- PROM -->
<g id="node15" class="node">
<title>PROM</title>
<polygon fill="#00897b" stroke="black" points="415.5,-515.75 301.5,-515.75 301.5,-479.75 415.5,-479.75 415.5,-515.75"/>
<text text-anchor="middle" x="358.5" y="-500.75" font-family="Helvetica,sans-Serif" font-size="10.00" fill="white">Prometheus Metrics</text>
<text text-anchor="middle" x="358.5" y="-489.75" font-family="Helvetica,sans-Serif" font-size="10.00" fill="white">bcms_fabric_*</text>
</g>
<!-- API&#45;&gt;PROM -->
<g id="edge17" class="edge">
<title>API&#45;&gt;PROM</title>
<path fill="none" stroke="#00897b" stroke-dasharray="5,2" d="M256.1,-630C291.47,-630 325.25,-630 325.25,-630 325.25,-630 325.25,-525.86 325.25,-525.86"/>
<polygon fill="#00897b" stroke="#00897b" points="328.75,-525.86 325.25,-515.86 321.75,-525.86 328.75,-525.86"/>
<text text-anchor="middle" x="328" y="-576.55" font-family="Helvetica,sans-Serif" font-size="9.00">Metrics</text>
</g>
<!-- P1 -->
<g id="node6" class="node">
<title>P1</title>
<polygon fill="#1565c0" stroke="black" points="556,-391.25 487,-391.25 487,-355.25 556,-355.25 556,-391.25"/>
<text text-anchor="middle" x="521.5" y="-376.25" font-family="Helvetica,sans-Serif" font-size="10.00" fill="white">peer0.org1</text>
<text text-anchor="middle" x="521.5" y="-365.25" font-family="Helvetica,sans-Serif" font-size="10.00" fill="white">:7051</text>
</g>
<!-- GATEWAY&#45;&gt;P1 -->
<g id="edge5" class="edge">
<title>GATEWAY&#45;&gt;P1</title>
<path fill="none" stroke="#0d47a1" stroke-width="2" d="M145.33,-477.23C145.33,-463.52 145.33,-448 145.33,-448 145.33,-448 510,-448 510,-448 510,-448 510,-401.34 510,-401.34"/>
<polygon fill="#0d47a1" stroke="#0d47a1" stroke-width="2" points="513.5,-401.34 510,-391.34 506.5,-401.34 513.5,-401.34"/>
<text text-anchor="middle" x="331" y="-437.05" font-family="Helvetica,sans-Serif" font-size="9.00">gRPC:7051</text>
<text text-anchor="middle" x="331" y="-427.05" font-family="Helvetica,sans-Serif" font-size="9.00">Org1 TX</text>
</g>
<!-- P2 -->
<g id="node8" class="node">
<title>P2</title>
<polygon fill="#2e7d32" stroke="black" points="444,-391.25 375,-391.25 375,-355.25 444,-355.25 444,-391.25"/>
<text text-anchor="middle" x="409.5" y="-376.25" font-family="Helvetica,sans-Serif" font-size="10.00" fill="white">peer0.org2</text>
<text text-anchor="middle" x="409.5" y="-365.25" font-family="Helvetica,sans-Serif" font-size="10.00" fill="white">:9051</text>
</g>
<!-- GATEWAY&#45;&gt;P2 -->
<g id="edge6" class="edge">
<title>GATEWAY&#45;&gt;P2</title>
<path fill="none" stroke="#1b5e20" stroke-width="2" d="M201.67,-477.15C201.67,-441.72 201.67,-373 201.67,-373 201.67,-373 364.71,-373 364.71,-373"/>
<polygon fill="#1b5e20" stroke="#1b5e20" stroke-width="2" points="364.71,-376.5 374.71,-373 364.71,-369.5 364.71,-376.5"/>
<text text-anchor="middle" x="221" y="-437.05" font-family="Helvetica,sans-Serif" font-size="9.00">gRPC:9051</text>
<text text-anchor="middle" x="221" y="-427.05" font-family="Helvetica,sans-Serif" font-size="9.00">Org2 TX</text>
</g>
<!-- DB1 -->
<g id="node7" class="node">
<title>DB1</title>
<path fill="#64b5f6" stroke="black" d="M457,-188.23C457,-190.31 443.33,-192 426.5,-192 409.67,-192 396,-190.31 396,-188.23 396,-188.23 396,-154.27 396,-154.27 396,-152.19 409.67,-150.5 426.5,-150.5 443.33,-150.5 457,-152.19 457,-154.27 457,-154.27 457,-188.23 457,-188.23"/>
<path fill="none" stroke="black" d="M457,-188.23C457,-186.15 443.33,-184.46 426.5,-184.46 409.67,-184.46 396,-186.15 396,-188.23"/>
<text text-anchor="middle" x="426.5" y="-174.25" font-family="Helvetica,sans-Serif" font-size="10.00">CouchDB</text>
<text text-anchor="middle" x="426.5" y="-163.25" font-family="Helvetica,sans-Serif" font-size="10.00">:5984</text>
</g>
<!-- P1&#45;&gt;DB1 -->
<g id="edge11" class="edge">
<title>P1&#45;&gt;DB1</title>
<path fill="none" stroke="#0d47a1" d="M486.83,-367C468.81,-367 450.5,-367 450.5,-367 450.5,-367 450.5,-201.46 450.5,-201.46"/>
<polygon fill="#0d47a1" stroke="#0d47a1" points="454,-201.46 450.5,-191.46 447,-201.46 454,-201.46"/>
</g>
<!-- ORD -->
<g id="node10" class="node">
<title>ORD</title>
<polygon fill="#e64a19" stroke="black" points="703.5,-391.25 649.5,-391.25 649.5,-355.25 703.5,-355.25 703.5,-391.25"/>
<text text-anchor="middle" x="676.5" y="-376.25" font-family="Helvetica,sans-Serif" font-size="10.00" fill="white">orderer</text>
<text text-anchor="middle" x="676.5" y="-365.25" font-family="Helvetica,sans-Serif" font-size="10.00" fill="white">:7050</text>
</g>
<!-- P1&#45;&gt;ORD -->
<g id="edge9" class="edge">
<title>P1&#45;&gt;ORD</title>
<path fill="none" stroke="#e65100" d="M556.29,-373C556.29,-373 639.04,-373 639.04,-373"/>
<polygon fill="#e65100" stroke="#e65100" points="639.04,-376.5 649.04,-373 639.04,-369.5 639.04,-376.5"/>
</g>
<!-- CC -->
<g id="node11" class="node">
<title>CC</title>
<polygon fill="#7b1fa2" stroke="black" points="658.5,-225.25 500.5,-225.25 500.5,-221.25 496.5,-221.25 496.5,-217.25 500.5,-217.25 500.5,-125.25 496.5,-125.25 496.5,-121.25 500.5,-121.25 500.5,-117.25 658.5,-117.25 658.5,-225.25"/>
<polyline fill="none" stroke="black" points="500.5,-221.25 504.5,-221.25 504.5,-217.25 500.5,-217.25 "/>
<polyline fill="none" stroke="black" points="500.5,-125.25 504.5,-125.25 504.5,-121.25 500.5,-121.25 "/>
<text text-anchor="middle" x="579.5" y="-201.75" font-family="Helvetica,sans-Serif" font-size="10.00" fill="white">SmartContract.go</text>
<text text-anchor="middle" x="579.5" y="-190.75" font-family="Helvetica,sans-Serif" font-size="10.00" fill="white">• InitLedger()</text>
<text text-anchor="middle" x="579.5" y="-179.75" font-family="Helvetica,sans-Serif" font-size="10.00" fill="white">• IssueCertificate()</text>
<text text-anchor="middle" x="579.5" y="-168.75" font-family="Helvetica,sans-Serif" font-size="10.00" fill="white">• VerifyCertificate()</text>
<text text-anchor="middle" x="579.5" y="-157.75" font-family="Helvetica,sans-Serif" font-size="10.00" fill="white">• RevokeCertificate()</text>
<text text-anchor="middle" x="579.5" y="-146.75" font-family="Helvetica,sans-Serif" font-size="10.00" fill="white">• QueryAllCertificates()</text>
<text text-anchor="middle" x="579.5" y="-135.75" font-family="Helvetica,sans-Serif" font-size="10.00" fill="white">• GetCertificateHistory()</text>
</g>
<!-- P1&#45;&gt;CC -->
<g id="edge7" class="edge">
<title>P1&#45;&gt;CC</title>
<path fill="none" stroke="#7b1fa2" stroke-width="2" d="M528.25,-354.97C528.25,-354.97 528.25,-235.54 528.25,-235.54"/>
<polygon fill="#7b1fa2" stroke="#7b1fa2" stroke-width="2" points="531.75,-235.54 528.25,-225.54 524.75,-235.54 531.75,-235.54"/>
<text text-anchor="middle" x="590" y="-315.05" font-family="Helvetica,sans-Serif" font-size="9.00">Invoke</text>
</g>
<!-- DB2 -->
<g id="node9" class="node">
<title>DB2</title>
<path fill="#81c784" stroke="black" d="M335,-188.23C335,-190.31 321.33,-192 304.5,-192 287.67,-192 274,-190.31 274,-188.23 274,-188.23 274,-154.27 274,-154.27 274,-152.19 287.67,-150.5 304.5,-150.5 321.33,-150.5 335,-152.19 335,-154.27 335,-154.27 335,-188.23 335,-188.23"/>
<path fill="none" stroke="black" d="M335,-188.23C335,-186.15 321.33,-184.46 304.5,-184.46 287.67,-184.46 274,-186.15 274,-188.23"/>
<text text-anchor="middle" x="304.5" y="-174.25" font-family="Helvetica,sans-Serif" font-size="10.00">CouchDB</text>
<text text-anchor="middle" x="304.5" y="-163.25" font-family="Helvetica,sans-Serif" font-size="10.00">:7984</text>
</g>
<!-- P2&#45;&gt;DB2 -->
<g id="edge12" class="edge">
<title>P2&#45;&gt;DB2</title>
<path fill="none" stroke="#1b5e20" d="M379.75,-354.94C379.75,-305.16 379.75,-171 379.75,-171 379.75,-171 345.11,-171 345.11,-171"/>
<polygon fill="#1b5e20" stroke="#1b5e20" points="345.11,-167.5 335.11,-171 345.11,-174.5 345.11,-167.5"/>
</g>
<!-- P2&#45;&gt;ORD -->
<g id="edge10" class="edge">
<title>P2&#45;&gt;ORD</title>
<path fill="none" stroke="#e65100" d="M429.75,-391.33C429.75,-404.12 429.75,-419 429.75,-419 429.75,-419 676.5,-419 676.5,-419 676.5,-419 676.5,-401.33 676.5,-401.33"/>
<polygon fill="#e65100" stroke="#e65100" points="680,-401.33 676.5,-391.33 673,-401.33 680,-401.33"/>
<text text-anchor="middle" x="586.5" y="-432.05" font-family="Helvetica,sans-Serif" font-size="9.00">Order TX</text>
</g>
<!-- P2&#45;&gt;CC -->
<g id="edge8" class="edge">
<title>P2&#45;&gt;CC</title>
<path fill="none" stroke="#7b1fa2" stroke-width="2" d="M420,-354.93C420,-311.91 420,-208 420,-208 420,-208 490.22,-208 490.22,-208"/>
<polygon fill="#7b1fa2" stroke="#7b1fa2" stroke-width="2" points="490.22,-211.5 500.22,-208 490.22,-204.5 490.22,-211.5"/>
<text text-anchor="middle" x="447" y="-315.05" font-family="Helvetica,sans-Serif" font-size="9.00">Invoke</text>
</g>
<!-- LEDGER -->
<g id="node12" class="node">
<title>LEDGER</title>
<path fill="#5d4037" stroke="black" d="M564.5,-37.6C564.5,-39.68 524.16,-41.38 474.5,-41.38 424.84,-41.38 384.5,-39.68 384.5,-37.6 384.5,-37.6 384.5,-3.65 384.5,-3.65 384.5,-1.57 424.84,0.13 474.5,0.13 524.16,0.13 564.5,-1.57 564.5,-3.65 564.5,-3.65 564.5,-37.6 564.5,-37.6"/>
<path fill="none" stroke="black" d="M564.5,-37.6C564.5,-35.52 524.16,-33.83 474.5,-33.83 424.84,-33.83 384.5,-35.52 384.5,-37.6"/>
<text text-anchor="middle" x="474.5" y="-23.62" font-family="Helvetica,sans-Serif" font-size="10.00" fill="white">Blockchain Ledger</text>
<text text-anchor="middle" x="474.5" y="-12.62" font-family="Helvetica,sans-Serif" font-size="10.00" fill="white">(CertID → {H(C), Sig, Meta})</text>
</g>
<!-- CC&#45;&gt;LEDGER -->
<g id="edge13" class="edge">
<title>CC&#45;&gt;LEDGER</title>
<path fill="none" stroke="#5d4037" stroke-width="2" d="M532.5,-116.87C532.5,-116.87 532.5,-51.17 532.5,-51.17"/>
<polygon fill="#5d4037" stroke="#5d4037" stroke-width="2" points="536,-51.17 532.5,-41.17 529,-51.17 536,-51.17"/>
<text text-anchor="middle" x="515.5" y="-77.05" font-family="Helvetica,sans-Serif" font-size="9.00">PutState/GetState</text>
</g>
<!-- AUDIT -->
<g id="node13" class="node">
<title>AUDIT</title>
<path fill="#795548" stroke="black" d="M761.5,-37.6C761.5,-39.68 726.99,-41.38 684.5,-41.38 642.01,-41.38 607.5,-39.68 607.5,-37.6 607.5,-37.6 607.5,-3.65 607.5,-3.65 607.5,-1.57 642.01,0.13 684.5,0.13 726.99,0.13 761.5,-1.57 761.5,-3.65 761.5,-3.65 761.5,-37.6 761.5,-37.6"/>
<path fill="none" stroke="black" d="M761.5,-37.6C761.5,-35.52 726.99,-33.83 684.5,-33.83 642.01,-33.83 607.5,-35.52 607.5,-37.6"/>
<text text-anchor="middle" x="684.5" y="-23.62" font-family="Helvetica,sans-Serif" font-size="10.00" fill="white">Audit Trail</text>
<text text-anchor="middle" x="684.5" y="-12.62" font-family="Helvetica,sans-Serif" font-size="10.00" fill="white">(AUDIT_&lt;txID&gt; → AuditLog)</text>
</g>
<!-- CC&#45;&gt;AUDIT -->
<g id="edge14" class="edge">
<title>CC&#45;&gt;AUDIT</title>
<path fill="none" stroke="#795548" stroke-dasharray="5,2" d="M633,-116.87C633,-116.87 633,-51.17 633,-51.17"/>
<polygon fill="#795548" stroke="#795548" points="636.5,-51.17 633,-41.17 629.5,-51.17 636.5,-51.17"/>
<text text-anchor="middle" x="716.5" y="-77.05" font-family="Helvetica,sans-Serif" font-size="9.00">WriteAuditLog</text>
</g>
<!-- CALIPER -->
<g id="node14" class="node">
<title>CALIPER</title>
<polygon fill="#00695c" stroke="black" points="572.5,-515.75 458.5,-515.75 458.5,-479.75 572.5,-479.75 572.5,-515.75"/>
<text text-anchor="middle" x="515.5" y="-500.75" font-family="Helvetica,sans-Serif" font-size="10.00" fill="white">Hyperledger Caliper</text>
<text text-anchor="middle" x="515.5" y="-489.75" font-family="Helvetica,sans-Serif" font-size="10.00" fill="white">benchmark suite</text>
</g>
<!-- CALIPER&#45;&gt;P1 -->
<g id="edge15" class="edge">
<title>CALIPER&#45;&gt;P1</title>
<path fill="none" stroke="#00695c" stroke-dasharray="5,2" d="M533,-479.65C533,-479.65 533,-401.38 533,-401.38"/>
<polygon fill="#00695c" stroke="#00695c" points="536.5,-401.38 533,-391.38 529.5,-401.38 536.5,-401.38"/>
<text text-anchor="middle" x="535.5" y="-432.05" font-family="Helvetica,sans-Serif" font-size="9.00">Benchmark</text>
</g>
<!-- CALIPER&#45;&gt;P2 -->
<g id="edge16" class="edge">
<title>CALIPER&#45;&gt;P2</title>
<path fill="none" stroke="#00695c" stroke-dasharray="5,2" d="M472.75,-479.71C472.75,-446.49 472.75,-379 472.75,-379 472.75,-379 454.09,-379 454.09,-379"/>
<polygon fill="#00695c" stroke="#00695c" points="454.09,-375.5 444.09,-379 454.09,-382.5 454.09,-375.5"/>
<text text-anchor="middle" x="435.5" y="-432.05" font-family="Helvetica,sans-Serif" font-size="9.00">Benchmark</text>
</g>
</g>
</svg>
